<?xml version="1.0" encoding="UTF-8" standalone="no"?>
<!-- Created with Inkscape (http://www.inkscape.org/) -->

<svg
   width="422.93039mm"
   height="197.54713mm"
   viewBox="0 0 422.93039 197.54713"
   version="1.1"
   id="svg5"
   inkscape:version="1.1.2 (b8e25be833, 2022-02-05)"
   sodipodi:docname="sbf.svg"
   xmlns:inkscape="http://www.inkscape.org/namespaces/inkscape"
   xmlns:sodipodi="http://sodipodi.sourceforge.net/DTD/sodipodi-0.dtd"
   xmlns="http://www.w3.org/2000/svg"
   xmlns:svg="http://www.w3.org/2000/svg">
  <sodipodi:namedview
     id="namedview7"
     pagecolor="#ffffff"
     bordercolor="#666666"
     borderopacity="1.0"
     inkscape:pageshadow="2"
     inkscape:pageopacity="0.0"
     inkscape:pagecheckerboard="0"
     inkscape:document-units="mm"
     showgrid="false"
     inkscape:zoom="0.71090067"
     inkscape:cx="758.89645"
     inkscape:cy="279.22325"
     inkscape:window-width="1920"
     inkscape:window-height="991"
     inkscape:window-x="-9"
     inkscape:window-y="-9"
     inkscape:window-maximized="1"
     inkscape:current-layer="layer1" />
  <defs
     id="defs2" />
  <g
     inkscape:label="Layer 1"
     inkscape:groupmode="layer"
     id="layer1"
     transform="translate(96.089255,-75.034707)">
    <g
       id="g19"
       transform="matrix(0.35277777,5.0961924e-8,-0.27224284,0.22435678,-96.02877,75.034707)">
      <path
         d="m 1305.069,494.647 h 83.844 l -10e-4,38.788 h -83.843 z"
         style="fill:#b3b3b3;fill-opacity:1;fill-rule:nonzero;stroke:#000000;stroke-width:0.111126;stroke-linecap:butt;stroke-linejoin:miter;stroke-miterlimit:4;stroke-dasharray:none;stroke-opacity:1"
         id="path21" />
    </g>
    <g
       id="g23"
       transform="matrix(0.35277777,0,0,0.35277777,-96.02877,75.034707)">
      <path
         d="m 922.707,230.066 h 84.629 v 84.625 h -84.629 z"
         style="fill:#b3b3b3;fill-opacity:1;fill-rule:nonzero;stroke:#000000;stroke-width:0.164913;stroke-linecap:butt;stroke-linejoin:miter;stroke-miterlimit:4;stroke-dasharray:none;stroke-opacity:1"
         id="path25" />
    </g>
    <g
       id="g27"
       transform="matrix(0.35277777,0,0,0.35277777,-96.02877,75.034707)">
      <path
         d="m 892.629,254.625 h 84.625 v 84.625 h -84.625 z"
         style="fill:#e6e6e6;fill-opacity:1;fill-rule:nonzero;stroke:#000000;stroke-width:0.164913;stroke-linecap:butt;stroke-linejoin:miter;stroke-miterlimit:4;stroke-dasharray:none;stroke-opacity:1"
         id="path29" />
    </g>
    <path
       d="m 231.99106,168.379 h 12.4079 v 3.94405 h -12.4079 z"
       style="fill:#666666;fill-opacity:1;fill-rule:nonzero;stroke:none;stroke-width:0.352778"
       id="path31" />
    <path
       d="m 226.18963,177.66552 h 3.94264 v 12.40649 h -3.94264 z"
       style="fill:#666666;fill-opacity:1;fill-rule:nonzero;stroke:none;stroke-width:0.352778"
       id="path33" />
    <g
       id="g35"
       transform="matrix(0.35277777,5.0961924e-8,-0.27224284,0.22435678,-96.02877,75.034707)">
      <path
         d="m 1202.382,361.583 h 83.84 v 38.788 h -83.844 l 10e-4,-38.788 z"
         style="fill:#b3b3b3;fill-opacity:1;fill-rule:nonzero;stroke:#000000;stroke-width:0.111126;stroke-linecap:butt;stroke-linejoin:miter;stroke-miterlimit:4;stroke-dasharray:none;stroke-opacity:1"
         id="path37" />
    </g>
    <g
       id="g39"
       transform="matrix(0.35277777,0,0,0.35277777,-96.02877,75.034707)">
      <path
         d="m 960.746,226.762 c 0,0 5.828,-85.395 96.266,-83.91"
         style="fill:none;stroke:#808080;stroke-width:2.32045;stroke-linecap:butt;stroke-linejoin:miter;stroke-miterlimit:4;stroke-dasharray:none;stroke-opacity:1"
         id="path41" />
    </g>
    <g
       id="g43"
       transform="matrix(-0.35277777,-0.00579307,0.00579307,-0.35277777,-96.02877,75.034707)">
      <path
         d="m -1035.869,-125.462 9.277,-9.282 -32.48,9.284 32.481,9.279 z"
         style="fill:#808080;fill-opacity:1;fill-rule:evenodd;stroke:#808080;stroke-width:2.47481;stroke-linecap:butt;stroke-linejoin:miter;stroke-miterlimit:4;stroke-dasharray:none;stroke-opacity:1"
         id="path45" />
    </g>
    <g
       id="g47"
       transform="matrix(0.35277777,0,0,0.35277777,-96.02877,75.034707)">
      <path
         d="m 1016.34,281.488 39.683,0.239"
         style="fill:none;stroke:#808080;stroke-width:2.32045;stroke-linecap:butt;stroke-linejoin:miter;stroke-miterlimit:4;stroke-dasharray:none;stroke-opacity:1"
         id="path49" />
    </g>
    <g
       id="g51"
       transform="matrix(-0.35277777,-0.00212723,0.00212723,-0.35277777,-96.02877,75.034707)">
      <path
         d="m -1034.477,-275.352 9.28,-9.279 -32.487,9.282 32.486,9.281 z"
         style="fill:#808080;fill-opacity:1;fill-rule:evenodd;stroke:#808080;stroke-width:2.4751;stroke-linecap:butt;stroke-linejoin:miter;stroke-miterlimit:4;stroke-dasharray:none;stroke-opacity:1"
         id="path53" />
    </g>
    <path
       d="m 241.10542,124.70617 h 2.10573 c 1.66864,0 2.30541,-0.97296 2.30541,-1.13136 0,-0.0607 -0.0399,-0.0801 -0.11995,-0.0801 -0.13899,0 -0.45755,0.11853 -0.77435,0.33761 -0.0991,0.0801 -0.13934,0.0801 -0.37747,0.0801 h -5.5439 c -1.56951,0 -3.31823,1.37125 -3.31823,2.40312 0,0.0801 0,0.13935 0.0991,0.13935 0.29775,0 1.09255,-0.41769 1.13277,-0.71543 0,-0.21767 0.019,-0.45579 0.27834,-0.77435 0.139,-0.15981 0.23848,-0.25894 0.79516,-0.25894 h 2.52307 c -0.21907,0.13899 -0.27834,0.31821 -0.29915,0.45755 l -1.44957,5.74217 c -0.13899,0.61595 -0.41769,1.41111 -0.77435,2.24472 -0.0801,0.13935 -0.0801,0.17921 -0.0801,0.20003 0,0.0783 0.0593,0.0783 0.11854,0.0783 0.23847,0 0.87524,-0.33761 1.0541,-0.59513 0.0787,-0.13935 0.63535,-1.43052 0.91369,-2.48462 z"
       style="fill:#000000;fill-opacity:1;fill-rule:nonzero;stroke:none;stroke-width:0.352778"
       id="path55" />
    <path
       d="m 244.80677,128.83191 c 0,-0.23848 0,-0.23848 -0.25753,-0.23848 -0.57609,0.55668 -1.37125,0.55668 -1.72932,0.55668 v 0.31856 c 0.19826,0 0.79516,0 1.27177,-0.23848 v 4.51027 c 0,0.29774 0,0.41627 -0.87348,0.41627 h -0.33761 v 0.31821 c 0.1584,0 1.25095,-0.0399 1.56951,-0.0399 0.27693,0 1.3903,0.0399 1.58891,0.0399 v -0.31821 h -0.33761 c -0.89464,0 -0.89464,-0.11853 -0.89464,-0.41627 z"
       style="fill:#000000;fill-opacity:1;fill-rule:nonzero;stroke:none;stroke-width:0.352778"
       id="path57" />
    <path
       d="m 257.98654,209.48996 h 1.9939 c 1.5808,0 2.18158,-0.92181 2.18158,-1.07209 0,-0.0564 -0.0374,-0.0759 -0.11183,-0.0759 -0.13229,0 -0.4325,0.11289 -0.73448,0.31961 -0.0935,0.0759 -0.13088,0.0759 -0.35666,0.0759 h -5.24757 c -1.48696,0 -3.14219,1.29822 -3.14219,2.27648 0,0.0744 0,0.13088 0.0952,0.13088 0.28116,0 1.03364,-0.39547 1.07209,-0.67663 0,-0.20673 0.018,-0.43251 0.26317,-0.73448 0.13088,-0.15029 0.22472,-0.24377 0.75248,-0.24377 h 2.38795 c -0.20673,0.13229 -0.26317,0.30021 -0.28222,0.4325 l -1.37266,5.43525 c -0.13229,0.5842 -0.39546,1.33667 -0.73307,2.12619 -0.0759,0.13088 -0.0759,0.16933 -0.0759,0.18733 0,0.0758 0.0564,0.0758 0.11289,0.0758 0.22613,0 0.82832,-0.31961 0.9966,-0.56479 0.0755,-0.13124 0.60219,-1.35326 0.86536,-2.35127 z"
       style="fill:#000000;fill-opacity:1;fill-rule:nonzero;stroke:none;stroke-width:0.352778"
       id="path59" />
    <path
       d="m 265.68557,213.92155 c 0.0758,-0.31962 0.22613,-0.60219 0.88476,-0.61983 0.037,0 0.16934,0 0.16934,-0.16969 0,-0.0564 -0.0385,-0.13229 -0.1323,-0.13229 -0.26317,0 -0.58278,0.0385 -0.86536,0.0385 -0.20673,0 -0.67663,-0.0385 -0.88335,-0.0385 -0.0385,0 -0.16934,0 -0.16934,0.18874 0,0.11324 0.11289,0.11324 0.18733,0.11324 0.39546,0.0176 0.52634,0.14993 0.52634,0.35666 0,0.0564 0,0.11324 -0.037,0.18732 l -0.90276,3.66854 -2.12478,-4.36421 c -0.0759,-0.15029 -0.0953,-0.15029 -0.30198,-0.15029 h -1.14652 c -0.15135,0 -0.26318,0 -0.26318,0.18874 0,0.11324 0.0938,0.11324 0.28117,0.11324 0.16968,0 0.35842,0.0176 0.52775,0.0565 l -1.11054,4.47569 c -0.0744,0.31961 -0.22613,0.58314 -0.88336,0.60219 -0.0564,0 -0.16968,0 -0.16968,0.16968 0,0.0935 0.0564,0.13088 0.11324,0.13088 0.28222,0 0.60219,-0.0374 0.88335,-0.0374 0.20638,0 0.67769,0.0374 0.88442,0.0374 0.0938,0 0.16968,-0.0374 0.16968,-0.16968 0,-0.13088 -0.0953,-0.13088 -0.18873,-0.13088 -0.52635,-0.019 -0.52635,-0.24518 -0.52635,-0.35807 0,-0.0374 0,-0.0744 0.019,-0.20673 l 1.09009,-4.28872 2.44616,5.0038 c 0.0564,0.15028 0.0935,0.15028 0.18732,0.15028 0.13229,0 0.13229,-0.018 0.16934,-0.16968 z"
       style="fill:#000000;fill-opacity:1;fill-rule:nonzero;stroke:none;stroke-width:0.352778"
       id="path61" />
    <g
       id="g63"
       transform="matrix(0.35277777,0,0,0.35277777,-96.02877,75.034707)">
      <path
         d="m 947.996,349.199 c 0,0 6.508,98.153 107.586,96.446"
         style="fill:none;stroke:#808080;stroke-width:2.32045;stroke-linecap:butt;stroke-linejoin:miter;stroke-miterlimit:4;stroke-dasharray:none;stroke-opacity:1"
         id="path65" />
    </g>
    <g
       id="g67"
       transform="matrix(-0.35277777,0.00595785,-0.00595785,-0.35277777,-96.02877,75.034707)">
      <path
         d="m -1024.554,-463.338 9.282,-9.281 -32.485,9.28 32.484,9.279 z"
         style="fill:#808080;fill-opacity:1;fill-rule:evenodd;stroke:#808080;stroke-width:2.47479;stroke-linecap:butt;stroke-linejoin:miter;stroke-miterlimit:4;stroke-dasharray:none;stroke-opacity:1"
         id="path69" />
    </g>
    <g
       id="g71"
       transform="matrix(0.35277777,5.0961924e-8,-0.27224284,0.22435678,-96.02877,75.034707)">
      <path
         d="m 1486.659,494.647 h 83.84 v 38.788 h -83.844 v -38.788 z"
         style="fill:#b3b3b3;fill-opacity:1;fill-rule:nonzero;stroke:#000000;stroke-width:0.111126;stroke-linecap:butt;stroke-linejoin:miter;stroke-miterlimit:4;stroke-dasharray:none;stroke-opacity:1"
         id="path73" />
    </g>
    <g
       id="g75"
       transform="matrix(0.35277777,0,0,0.35277777,-96.02877,75.034707)">
      <path
         d="m 1104.297,230.066 h 84.629 v 84.625 h -84.629 z"
         style="fill:#b3b3b3;fill-opacity:1;fill-rule:nonzero;stroke:#000000;stroke-width:0.164913;stroke-linecap:butt;stroke-linejoin:miter;stroke-miterlimit:4;stroke-dasharray:none;stroke-opacity:1"
         id="path77" />
    </g>
    <g
       id="g79"
       transform="matrix(0.35277777,0,0,0.35277777,-96.02877,75.034707)">
      <path
         d="m 1074.219,254.625 h 84.625 v 84.625 h -84.625 z"
         style="fill:#e6e6e6;fill-opacity:1;fill-rule:nonzero;stroke:#000000;stroke-width:0.164913;stroke-linecap:butt;stroke-linejoin:miter;stroke-miterlimit:4;stroke-dasharray:none;stroke-opacity:1"
         id="path81" />
    </g>
    <path
       d="m 288.84613,169.79681 h 12.4079 v 3.94265 h -12.4079 z"
       style="fill:#666666;fill-opacity:1;fill-rule:nonzero;stroke:none;stroke-width:0.352778"
       id="path83" />
    <path
       d="m 303.66421,177.00547 h 3.94264 v 12.4079 h -3.94264 z"
       style="fill:#666666;fill-opacity:1;fill-rule:nonzero;stroke:none;stroke-width:0.352778"
       id="path85" />
    <g
       id="g87"
       transform="matrix(0.35277777,5.0961924e-8,-0.27224284,0.22435678,-96.02877,75.034707)">
      <path
         d="m 1383.972,361.583 h 83.84 v 38.788 h -83.844 l 10e-4,-38.788 z"
         style="fill:#b3b3b3;fill-opacity:1;fill-rule:nonzero;stroke:#000000;stroke-width:0.111126;stroke-linecap:butt;stroke-linejoin:miter;stroke-miterlimit:4;stroke-dasharray:none;stroke-opacity:1"
         id="path89" />
    </g>
    <g
       id="g91"
       transform="matrix(0.35277777,5.0961924e-8,-0.27224284,0.22435678,-96.02877,75.034707)">
      <path
         d="m 1297.903,250.054 h 83.844 l -0.01,38.781 h -83.84 l 10e-4,-38.781 z"
         style="fill:#b3b3b3;fill-opacity:1;fill-rule:nonzero;stroke:#000000;stroke-width:0.111126;stroke-linecap:butt;stroke-linejoin:miter;stroke-miterlimit:4;stroke-dasharray:none;stroke-opacity:1"
         id="path93" />
    </g>
    <g
       id="g95"
       transform="matrix(0.35277777,0,0,0.35277777,-96.02877,75.034707)">
      <path
         d="m 1104.297,74.508 h 84.629 v 84.629 h -84.629 z"
         style="fill:#b3b3b3;fill-opacity:1;fill-rule:nonzero;stroke:#000000;stroke-width:0.164913;stroke-linecap:butt;stroke-linejoin:miter;stroke-miterlimit:4;stroke-dasharray:none;stroke-opacity:1"
         id="path97" />
    </g>
    <g
       id="g99"
       transform="matrix(0.35277777,0,0,0.35277777,-96.02877,75.034707)">
      <path
         d="m 1074.219,99.066 h 84.625 v 84.625 h -84.625 z"
         style="fill:#e6e6e6;fill-opacity:1;fill-rule:nonzero;stroke:#000000;stroke-width:0.164913;stroke-linecap:butt;stroke-linejoin:miter;stroke-miterlimit:4;stroke-dasharray:none;stroke-opacity:1"
         id="path101" />
    </g>
    <path
       d="m 296.05197,113.50265 h 12.4079 v 3.94265 h -12.4079 z"
       style="fill:#666666;fill-opacity:1;fill-rule:nonzero;stroke:none;stroke-width:0.352778"
       id="path103" />
    <path
       d="m 290.25054,122.78776 h 3.94265 v 12.4079 h -3.94265 z"
       style="fill:#666666;fill-opacity:1;fill-rule:nonzero;stroke:none;stroke-width:0.352778"
       id="path105" />
    <g
       id="g107"
       transform="matrix(0.35277777,5.0961924e-8,-0.27224284,0.22435678,-96.02877,75.034707)">
      <path
         d="m 1195.211,116.984 h 83.84 v 38.787 h -83.843 v -38.787 z"
         style="fill:#b3b3b3;fill-opacity:1;fill-rule:nonzero;stroke:#000000;stroke-width:0.111126;stroke-linecap:butt;stroke-linejoin:miter;stroke-miterlimit:4;stroke-dasharray:none;stroke-opacity:1"
         id="path109" />
    </g>
    <g
       id="g111"
       transform="matrix(0.35277777,5.0961924e-8,-0.27224284,0.22435678,-96.02877,75.034707)">
      <path
         d="m 1677.069,741.384 h 83.844 l -10e-4,38.788 h -83.84 v -38.788 z"
         style="fill:#b3b3b3;fill-opacity:1;fill-rule:nonzero;stroke:#000000;stroke-width:0.111126;stroke-linecap:butt;stroke-linejoin:miter;stroke-miterlimit:4;stroke-dasharray:none;stroke-opacity:1"
         id="path113" />
    </g>
    <g
       id="g115"
       transform="matrix(0.35277777,0,0,0.35277777,-96.02877,75.034707)">
      <path
         d="m 1104.297,386.984 h 84.629 v 84.625 h -84.629 z"
         style="fill:#b3b3b3;fill-opacity:1;fill-rule:nonzero;stroke:#000000;stroke-width:0.164913;stroke-linecap:butt;stroke-linejoin:miter;stroke-miterlimit:4;stroke-dasharray:none;stroke-opacity:1"
         id="path117" />
    </g>
    <g
       id="g119"
       transform="matrix(0.35277777,0,0,0.35277777,-96.02877,75.034707)">
      <path
         d="m 1074.219,411.543 h 84.625 v 84.625 h -84.625 z"
         style="fill:#e6e6e6;fill-opacity:1;fill-rule:nonzero;stroke:#000000;stroke-width:0.164913;stroke-linecap:butt;stroke-linejoin:miter;stroke-miterlimit:4;stroke-dasharray:none;stroke-opacity:1"
         id="path121" />
    </g>
    <path
       d="m 293.54266,241.40788 h 12.4079 v 3.94405 h -12.4079 z"
       style="fill:#666666;fill-opacity:1;fill-rule:nonzero;stroke:none;stroke-width:0.352778"
       id="path123" />
    <path
       d="m 286.51886,225.87049 h 3.94264 v 12.40649 h -3.94264 z"
       style="fill:#666666;fill-opacity:1;fill-rule:nonzero;stroke:none;stroke-width:0.352778"
       id="path125" />
    <g
       id="g127"
       transform="matrix(0.35277777,5.0961924e-8,-0.27224284,0.22435678,-96.02877,75.034707)">
      <path
         d="m 1574.382,608.32 h 83.844 v 38.788 h -83.844 l 10e-4,-38.788 z"
         style="fill:#b3b3b3;fill-opacity:1;fill-rule:nonzero;stroke:#000000;stroke-width:0.111126;stroke-linecap:butt;stroke-linejoin:miter;stroke-miterlimit:4;stroke-dasharray:none;stroke-opacity:1"
         id="path129" />
    </g>
    <g
       id="g131"
       transform="matrix(0.35277777,0,0,0.35277777,-96.02877,75.034707)">
      <path
         d="m 1062.383,59.191 h 135.812 v 456.238 h -135.812 z"
         style="fill:none;stroke:#000000;stroke-width:0.982732;stroke-linecap:butt;stroke-linejoin:miter;stroke-miterlimit:4;stroke-dasharray:0.982732, 0.982732;stroke-dashoffset:0;stroke-opacity:1"
         id="path133" />
    </g>
    <path
       d="m 269.35128,157.49087 h 1.89054 c 1.49789,0 2.06833,-0.87348 2.06833,-1.01565 0,-0.0536 -0.0356,-0.0716 -0.10583,-0.0716 -0.12559,0 -0.41099,0.10759 -0.69603,0.30338 -0.0896,0.0716 -0.12559,0.0716 -0.33902,0.0716 h -4.97628 c -1.4097,0 -2.97921,1.23049 -2.97921,2.15794 0,0.0716 0,0.12418 0.0896,0.12418 0.26741,0 0.98108,-0.37359 1.01706,-0.64241 0,-0.19544 0.018,-0.40922 0.24942,-0.69427 0.12382,-0.14358 0.21343,-0.23318 0.71366,-0.23318 h 2.26413 c -0.19544,0.12559 -0.24941,0.2868 -0.26705,0.41063 l -1.30246,5.15549 c -0.12382,0.55245 -0.37323,1.26648 -0.69462,2.01472 -0.0716,0.12523 -0.0716,0.16122 -0.0716,0.17886 0,0.072 0.054,0.072 0.10619,0.072 0.21484,0 0.78563,-0.3048 0.94544,-0.53622 0.0716,-0.12418 0.57185,-1.28446 0.82127,-2.22955 z"
       style="fill:#000000;fill-opacity:1;fill-rule:nonzero;stroke:none;stroke-width:0.352778"
       id="path135" />
    <path
       d="m 274.02947,164.81524 h -0.26706 c -0.018,0.17921 -0.10759,0.64205 -0.21378,0.71402 -0.0536,0.0536 -0.66005,0.0536 -0.78528,0.0536 h -1.46227 c 0.83785,-0.73166 1.12325,-0.96343 1.5875,-1.33808 0.58844,-0.4632 1.14089,-0.96344 1.14089,-1.71168 0,-0.96308 -0.83785,-1.55293 -1.85456,-1.55293 -0.98142,0 -1.65946,0.69603 -1.65946,1.42769 0,0.39264 0.33902,0.44662 0.42862,0.44662 0.1778,0 0.41064,-0.14358 0.41064,-0.42863 0,-0.14358 -0.0536,-0.42862 -0.46426,-0.42862 0.24941,-0.5528 0.78528,-0.73025 1.15887,-0.73025 0.80328,0 1.21391,0.62406 1.21391,1.26612 0,0.69462 -0.49988,1.23084 -0.7493,1.51589 l -1.90888,1.90852 c -0.0896,0.0706 -0.0896,0.0882 -0.0896,0.30339 h 3.28259 z"
       style="fill:#000000;fill-opacity:1;fill-rule:nonzero;stroke:none;stroke-width:0.352778"
       id="path137" />
    <g
       id="g139"
       transform="matrix(0.35277777,0,0,0.35277777,-96.02877,75.034707)">
      <path
         d="m 336.059,236.754 h 84.629 v 84.625 h -84.629 z"
         style="fill:#b3b3b3;fill-opacity:1;fill-rule:nonzero;stroke:#000000;stroke-width:0.164913;stroke-linecap:butt;stroke-linejoin:miter;stroke-miterlimit:4;stroke-dasharray:none;stroke-opacity:1"
         id="path141" />
    </g>
    <g
       id="g143"
       transform="matrix(0.35277777,0,0,0.35277777,-96.02877,75.034707)">
      <path
         d="m 328.637,243.879 h 84.625 v 84.625 h -84.625 z"
         style="fill:#b3b3b3;fill-opacity:1;fill-rule:nonzero;stroke:#000000;stroke-width:0.164913;stroke-linecap:butt;stroke-linejoin:miter;stroke-miterlimit:4;stroke-dasharray:none;stroke-opacity:1"
         id="path145" />
    </g>
    <g
       id="g147"
       transform="matrix(0.35277777,0,0,0.35277777,-96.02877,75.034707)">
      <path
         d="m 321.57,250.945 h 84.625 V 335.57 H 321.57 Z"
         style="fill:#b3b3b3;fill-opacity:1;fill-rule:nonzero;stroke:#000000;stroke-width:0.164913;stroke-linecap:butt;stroke-linejoin:miter;stroke-miterlimit:4;stroke-dasharray:none;stroke-opacity:1"
         id="path149" />
    </g>
    <g
       id="g151"
       transform="matrix(0.35277777,0,0,0.35277777,-96.02877,75.034707)">
      <path
         d="m 315.008,258.012 h 84.625 v 84.629 h -84.625 z"
         style="fill:#b3b3b3;fill-opacity:1;fill-rule:nonzero;stroke:#000000;stroke-width:0.164913;stroke-linecap:butt;stroke-linejoin:miter;stroke-miterlimit:4;stroke-dasharray:none;stroke-opacity:1"
         id="path153" />
    </g>
    <g
       id="g155"
       transform="matrix(0.35277777,0,0,0.35277777,-96.02877,75.034707)">
      <path
         d="m 308.145,265.074 h 84.629 v 84.629 h -84.629 z"
         style="fill:#b3b3b3;fill-opacity:1;fill-rule:nonzero;stroke:#000000;stroke-width:0.164913;stroke-linecap:butt;stroke-linejoin:miter;stroke-miterlimit:4;stroke-dasharray:none;stroke-opacity:1"
         id="path157" />
    </g>
    <g
       id="g159"
       transform="matrix(0.35277777,0,0,0.35277777,-96.02877,75.034707)">
      <path
         d="m 301.379,272.148 h 84.625 v 84.625 h -84.625 z"
         style="fill:#b3b3b3;fill-opacity:1;fill-rule:nonzero;stroke:#000000;stroke-width:0.164913;stroke-linecap:butt;stroke-linejoin:miter;stroke-miterlimit:4;stroke-dasharray:none;stroke-opacity:1"
         id="path161" />
    </g>
    <g
       id="g163"
       transform="matrix(0.35277777,0,-0.24418184,0.25461206,-96.02877,75.034707)">
      <path
         d="m 708.319,246.444 h 24.676 l 10e-4,75.658 h -24.679 z"
         style="fill:#b3b3b3;fill-opacity:1;fill-rule:nonzero;stroke:#333333;stroke-width:0.0842009;stroke-linecap:butt;stroke-linejoin:miter;stroke-miterlimit:4;stroke-dasharray:none;stroke-opacity:1"
         id="path165" />
    </g>
    <g
       id="g167"
       transform="matrix(0.35277777,0,0,0.35277777,-96.02877,75.034707)">
      <path
         d="m 485.344,207.723 h 24.617 v 24.617 h -24.617 z"
         style="fill:#e6e6e6;fill-opacity:1;fill-rule:nonzero;stroke:#333333;stroke-width:0.0479724;stroke-linecap:butt;stroke-linejoin:miter;stroke-miterlimit:4;stroke-dasharray:none;stroke-opacity:1"
         id="path169" />
    </g>
    <g
       id="g171"
       transform="matrix(0.35277777,0,0,0.35277777,-96.02877,75.034707)">
      <path
         d="m 537.75,153.273 h 24.617 V 177.89 H 537.75 Z"
         style="fill:#b3b3b3;fill-opacity:1;fill-rule:nonzero;stroke:#333333;stroke-width:0.0479724;stroke-linecap:butt;stroke-linejoin:miter;stroke-miterlimit:4;stroke-dasharray:none;stroke-opacity:1"
         id="path173" />
    </g>
    <g
       id="g175"
       transform="matrix(0.35277777,0,-0.24418184,0.25461206,-96.02877,75.034707)">
      <path
         d="m 684.415,212.271 h 24.676 l -0.002,75.653 h -24.676 z"
         style="fill:#b3b3b3;fill-opacity:1;fill-rule:nonzero;stroke:#333333;stroke-width:0.0842009;stroke-linecap:butt;stroke-linejoin:miter;stroke-miterlimit:4;stroke-dasharray:none;stroke-opacity:1"
         id="path177" />
    </g>
    <g
       id="g179"
       transform="matrix(0.35277777,0,-0.24418184,0.25461206,-96.02877,75.034707)">
      <path
         d="m 760.315,320.3 h 24.676 l 10e-4,75.659 h -24.675 z"
         style="fill:#b3b3b3;fill-opacity:1;fill-rule:nonzero;stroke:#333333;stroke-width:0.0842009;stroke-linecap:butt;stroke-linejoin:miter;stroke-miterlimit:4;stroke-dasharray:none;stroke-opacity:1"
         id="path181" />
    </g>
    <g
       id="g183"
       transform="matrix(0.35277777,0,0,0.35277777,-96.02877,75.034707)">
      <path
         d="m 486.219,261.027 h 24.617 v 24.621 h -24.617 z"
         style="fill:#e6e6e6;fill-opacity:1;fill-rule:nonzero;stroke:#333333;stroke-width:0.0479724;stroke-linecap:butt;stroke-linejoin:miter;stroke-miterlimit:4;stroke-dasharray:none;stroke-opacity:1"
         id="path185" />
    </g>
    <g
       id="g187"
       transform="matrix(0.35277777,0,0,0.35277777,-96.02877,75.034707)">
      <path
         d="m 538.625,206.582 h 24.617 v 24.617 h -24.617 z"
         style="fill:#b3b3b3;fill-opacity:1;fill-rule:nonzero;stroke:#333333;stroke-width:0.0479724;stroke-linecap:butt;stroke-linejoin:miter;stroke-miterlimit:4;stroke-dasharray:none;stroke-opacity:1"
         id="path189" />
    </g>
    <g
       id="g191"
       transform="matrix(0.35277777,0,-0.24418184,0.25461206,-96.02877,75.034707)">
      <path
         d="m 736.412,286.127 h 24.675 l 0.002,75.659 h -24.676 z"
         style="fill:#b3b3b3;fill-opacity:1;fill-rule:nonzero;stroke:#333333;stroke-width:0.0842009;stroke-linecap:butt;stroke-linejoin:miter;stroke-miterlimit:4;stroke-dasharray:none;stroke-opacity:1"
         id="path193" />
    </g>
    <g
       id="g195"
       transform="matrix(0.35277777,0,-0.24418184,0.25461206,-96.02877,75.034707)">
      <path
         d="m 859.615,463.174 h 24.675 l 0.002,75.659 h -24.676 z"
         style="fill:#b3b3b3;fill-opacity:1;fill-rule:nonzero;stroke:#333333;stroke-width:0.0842009;stroke-linecap:butt;stroke-linejoin:miter;stroke-miterlimit:4;stroke-dasharray:none;stroke-opacity:1"
         id="path197" />
    </g>
    <g
       id="g199"
       transform="matrix(0.35277777,0,0,0.35277777,-96.02877,75.034707)">
      <path
         d="m 486.625,364.145 h 24.617 v 24.617 h -24.617 z"
         style="fill:#e6e6e6;fill-opacity:1;fill-rule:nonzero;stroke:#333333;stroke-width:0.0479724;stroke-linecap:butt;stroke-linejoin:miter;stroke-miterlimit:4;stroke-dasharray:none;stroke-opacity:1"
         id="path201" />
    </g>
    <g
       id="g203"
       transform="matrix(0.35277777,0,0,0.35277777,-96.02877,75.034707)">
      <path
         d="m 539.031,309.699 h 24.617 v 24.617 h -24.617 z"
         style="fill:#b3b3b3;fill-opacity:1;fill-rule:nonzero;stroke:#333333;stroke-width:0.0479724;stroke-linecap:butt;stroke-linejoin:miter;stroke-miterlimit:4;stroke-dasharray:none;stroke-opacity:1"
         id="path205" />
    </g>
    <g
       id="g207"
       transform="matrix(0.35277777,0,-0.24418184,0.25461206,-96.02877,75.034707)">
      <path
         d="m 835.711,429.001 h 24.676 l 0.001,75.659 h -24.676 z"
         style="fill:#b3b3b3;fill-opacity:1;fill-rule:nonzero;stroke:#333333;stroke-width:0.0842009;stroke-linecap:butt;stroke-linejoin:miter;stroke-miterlimit:4;stroke-dasharray:none;stroke-opacity:1"
         id="path209" />
    </g>
    <path
       d="m 83.281468,180.06723 c 0,-0.32773 -0.274109,-0.62124 -0.602192,-0.62124 -0.347133,0 -0.621594,0.29351 -0.621594,0.62124 0,0.34749 0.274461,0.6216 0.621594,0.6216 0.328083,0 0.602192,-0.27411 0.602192,-0.6216 z"
       style="fill:#000000;fill-opacity:1;fill-rule:nonzero;stroke:none;stroke-width:0.352778"
       id="path211" />
    <path
       d="m 83.281468,184.7306 c 0,-0.32914 -0.274109,-0.62124 -0.602192,-0.62124 -0.347133,0 -0.621594,0.2921 -0.621594,0.62124 0,0.34749 0.274461,0.6216 0.621594,0.6216 0.328083,0 0.602192,-0.27411 0.602192,-0.6216 z"
       style="fill:#000000;fill-opacity:1;fill-rule:nonzero;stroke:none;stroke-width:0.352778"
       id="path213" />
    <path
       d="m 83.281468,189.38162 c 0,-0.32808 -0.274109,-0.62018 -0.602192,-0.62018 -0.347133,0 -0.621594,0.2921 -0.621594,0.62018 0,0.34714 0.274461,0.6216 0.621594,0.6216 0.328083,0 0.602192,-0.27446 0.602192,-0.6216 z"
       style="fill:#000000;fill-opacity:1;fill-rule:nonzero;stroke:none;stroke-width:0.352778"
       id="path215" />
    <g
       id="g217"
       transform="matrix(0.35277777,0,-0.24418184,0.25461206,-96.02877,75.034707)">
      <path
         d="m 912.517,539.802 h 24.676 l 10e-4,75.658 h -24.676 z"
         style="fill:#b3b3b3;fill-opacity:1;fill-rule:nonzero;stroke:#333333;stroke-width:0.0842009;stroke-linecap:butt;stroke-linejoin:miter;stroke-miterlimit:4;stroke-dasharray:none;stroke-opacity:1"
         id="path219" />
    </g>
    <g
       id="g221"
       transform="matrix(0.35277777,0,0,0.35277777,-96.02877,75.034707)">
      <path
         d="m 486.488,419.449 h 24.617 v 24.617 h -24.617 z"
         style="fill:#e6e6e6;fill-opacity:1;fill-rule:nonzero;stroke:#333333;stroke-width:0.0479724;stroke-linecap:butt;stroke-linejoin:miter;stroke-miterlimit:4;stroke-dasharray:none;stroke-opacity:1"
         id="path223" />
    </g>
    <g
       id="g225"
       transform="matrix(0.35277777,0,0,0.35277777,-96.02877,75.034707)">
      <path
         d="m 538.895,365 h 24.617 v 24.617 h -24.617 z"
         style="fill:#b3b3b3;fill-opacity:1;fill-rule:nonzero;stroke:#333333;stroke-width:0.0479724;stroke-linecap:butt;stroke-linejoin:miter;stroke-miterlimit:4;stroke-dasharray:none;stroke-opacity:1"
         id="path227" />
    </g>
    <g
       id="g229"
       transform="matrix(0.35277777,0,-0.24418184,0.25461206,-96.02877,75.034707)">
      <path
         d="m 888.613,505.628 h 24.676 l 10e-4,75.659 h -24.675 z"
         style="fill:#b3b3b3;fill-opacity:1;fill-rule:nonzero;stroke:#333333;stroke-width:0.0842009;stroke-linecap:butt;stroke-linejoin:miter;stroke-miterlimit:4;stroke-dasharray:none;stroke-opacity:1"
         id="path231" />
    </g>
    <path
       d="m -58.653729,88.780693 c 0.191558,-1.266472 0.335139,-2.531533 0.335139,-3.821289 0,-0.453319 0,-2.149828 -0.525286,-3.248025 -0.597959,-1.218142 -1.4097,-1.385005 -1.91135,-1.385005 -0.524934,0 -1.049867,0.430036 -1.049867,0.644877 0,0.119945 0.07161,0.119945 0.261761,0.119945 0.669572,0.07161 1.313392,0.381705 1.719792,1.623483 0.334786,0.954969 0.381705,2.101497 0.381705,2.769658 0,2.293056 -0.548569,4.943122 -0.644877,5.301192 -0.02364,0.191558 -0.04692,0.263525 -0.04692,0.406753 0,0.04833 0,0.238477 0.09525,0.238477 0.0949,0 0.0949,-0.02364 0.334786,-0.310091 1.694745,-2.0066 3.391253,-4.322939 5.062714,-7.212895 0.573264,-1.049866 0.978606,-1.861608 1.050219,-1.957916 0.45332,1.4097 0.95497,3.511197 1.266473,5.9944 0.07161,0.811741 0.166511,1.743075 0.166511,2.554816 0,0.04833 0.02364,0.764823 0.02364,0.813153 0,0.04657 0.04798,0.118533 0.09631,0.118533 0.07161,0 0.09525,-0.02364 0.333728,-0.286808 1.886303,-2.12478 5.157964,-6.566253 5.157964,-9.194094 0,-1.217083 -0.64382,-1.623483 -1.121834,-1.623483 -0.4064,0 -0.644877,0.931686 -0.644877,1.169811 0,0.215194 0.07161,0.215194 0.191558,0.238477 0.214842,0.02469 0.906639,0.143228 0.906639,1.146528 0,1.743428 -3.724981,6.424436 -3.821289,6.424436 -0.02328,0 -0.02328,-0.02328 -0.04692,-0.358069 -0.167923,-3.271661 -1.051278,-6.782858 -1.671462,-8.45432 -0.04833,-0.09525 -0.04833,-0.166863 -0.214841,-0.166863 -0.286808,0 -0.931686,0.381705 -0.931686,0.668513 0,0.04798 0.04692,0.191559 0.09525,0.263173 -0.931686,1.766358 -2.316692,4.322938 -4.848225,7.522633 z"
       style="fill:#000000;fill-opacity:1;fill-rule:nonzero;stroke:none;stroke-width:0.352778"
       id="path233" />
    <g
       id="g235"
       transform="matrix(0.35277777,5.0961924e-8,-0.27224284,0.22435678,-96.02877,75.034707)">
      <path
         d="m 1054.568,494.641 h 83.84 v 38.788 h -83.843 v -38.788 z"
         style="fill:#b3b3b3;fill-opacity:1;fill-rule:nonzero;stroke:#000000;stroke-width:0.111126;stroke-linecap:butt;stroke-linejoin:miter;stroke-miterlimit:4;stroke-dasharray:none;stroke-opacity:1"
         id="path237" />
    </g>
    <g
       id="g239"
       transform="matrix(0.35277777,0,0,0.35277777,-96.02877,75.034707)">
      <path
         d="m 672.211,230.062 h 84.625 v 84.629 h -84.625 z"
         style="fill:#b3b3b3;fill-opacity:1;fill-rule:nonzero;stroke:#000000;stroke-width:0.164913;stroke-linecap:butt;stroke-linejoin:miter;stroke-miterlimit:4;stroke-dasharray:none;stroke-opacity:1"
         id="path241" />
    </g>
    <g
       id="g243"
       transform="matrix(0.35277777,0,0,0.35277777,-96.02877,75.034707)">
      <path
         d="m 642.129,254.621 h 84.629 v 84.625 h -84.629 z"
         style="fill:#e6e6e6;fill-opacity:1;fill-rule:nonzero;stroke:#000000;stroke-width:0.164913;stroke-linecap:butt;stroke-linejoin:miter;stroke-miterlimit:4;stroke-dasharray:none;stroke-opacity:1"
         id="path245" />
    </g>
    <path
       d="m 136.4158,169.7954 h 12.40649 v 3.94406 H 136.4158 Z"
       style="fill:#e6e6e6;fill-opacity:1;fill-rule:nonzero;stroke:none;stroke-width:0.352778"
       id="path247" />
    <path
       d="m 151.23246,177.00406 h 3.94406 v 12.4079 h -3.94406 z"
       style="fill:#e6e6e6;fill-opacity:1;fill-rule:nonzero;stroke:none;stroke-width:0.352778"
       id="path249" />
    <g
       id="g251"
       transform="matrix(0.35277777,5.0961924e-8,-0.27224284,0.22435678,-96.02877,75.034707)">
      <path
         d="m 951.881,361.577 h 83.84 v 38.788 h -83.843 v -38.788 z"
         style="fill:#b3b3b3;fill-opacity:1;fill-rule:nonzero;stroke:#000000;stroke-width:0.111126;stroke-linecap:butt;stroke-linejoin:miter;stroke-miterlimit:4;stroke-dasharray:none;stroke-opacity:1"
         id="path253" />
    </g>
    <g
       id="g255"
       transform="matrix(0.35277777,5.0961924e-8,-0.27224284,0.22435678,-96.02877,75.034707)">
      <path
         d="m 865.812,250.048 h 83.84 l 0.004,38.787 h -83.844 z"
         style="fill:#b3b3b3;fill-opacity:1;fill-rule:nonzero;stroke:#000000;stroke-width:0.111126;stroke-linecap:butt;stroke-linejoin:miter;stroke-miterlimit:4;stroke-dasharray:none;stroke-opacity:1"
         id="path257" />
    </g>
    <g
       id="g259"
       transform="matrix(0.35277777,0,0,0.35277777,-96.02877,75.034707)">
      <path
         d="m 672.211,74.508 h 84.625 v 84.625 h -84.625 z"
         style="fill:#b3b3b3;fill-opacity:1;fill-rule:nonzero;stroke:#000000;stroke-width:0.164913;stroke-linecap:butt;stroke-linejoin:miter;stroke-miterlimit:4;stroke-dasharray:none;stroke-opacity:1"
         id="path261" />
    </g>
    <g
       id="g263"
       transform="matrix(0.35277777,0,0,0.35277777,-96.02877,75.034707)">
      <path
         d="m 642.129,99.062 h 84.629 v 84.629 h -84.629 z"
         style="fill:#e6e6e6;fill-opacity:1;fill-rule:nonzero;stroke:#000000;stroke-width:0.164913;stroke-linecap:butt;stroke-linejoin:miter;stroke-miterlimit:4;stroke-dasharray:none;stroke-opacity:1"
         id="path265" />
    </g>
    <path
       d="m 143.62164,113.50124 h 12.4079 v 3.94406 h -12.4079 z"
       style="fill:#e6e6e6;fill-opacity:1;fill-rule:nonzero;stroke:none;stroke-width:0.352778"
       id="path267" />
    <path
       d="m 137.82021,122.78776 h 3.94264 v 12.40649 h -3.94264 z"
       style="fill:#e6e6e6;fill-opacity:1;fill-rule:nonzero;stroke:none;stroke-width:0.352778"
       id="path269" />
    <g
       id="g271"
       transform="matrix(0.35277777,5.0961924e-8,-0.27224284,0.22435678,-96.02877,75.034707)">
      <path
         d="m 763.125,116.984 h 83.84 l -10e-4,38.781 H 763.12 Z"
         style="fill:#b3b3b3;fill-opacity:1;fill-rule:nonzero;stroke:#000000;stroke-width:0.111126;stroke-linecap:butt;stroke-linejoin:miter;stroke-miterlimit:4;stroke-dasharray:none;stroke-opacity:1"
         id="path273" />
    </g>
    <path
       d="m 150.27361,200.0281 c 0,-0.19402 -0.16263,-0.36759 -0.35701,-0.36759 -0.20673,0 -0.36794,0.17357 -0.36794,0.36759 0,0.20673 0.16121,0.36795 0.36794,0.36795 0.19438,0 0.35701,-0.16122 0.35701,-0.36795 z"
       style="fill:#e6e6e6;fill-opacity:1;fill-rule:nonzero;stroke:none;stroke-width:0.352778"
       id="path275" />
    <path
       d="m 150.27361,202.79 c 0,-0.19438 -0.16263,-0.36795 -0.35701,-0.36795 -0.20673,0 -0.36794,0.17357 -0.36794,0.36795 0,0.20673 0.16121,0.36795 0.36794,0.36795 0.19438,0 0.35701,-0.16122 0.35701,-0.36795 z"
       style="fill:#e6e6e6;fill-opacity:1;fill-rule:nonzero;stroke:none;stroke-width:0.352778"
       id="path277" />
    <path
       d="m 150.27361,205.5459 c 0,-0.19579 -0.16263,-0.36795 -0.35701,-0.36795 -0.20673,0 -0.36794,0.17216 -0.36794,0.36795 0,0.20532 0.16121,0.36795 0.36794,0.36795 0.19438,0 0.35701,-0.16263 0.35701,-0.36795 z"
       style="fill:#e6e6e6;fill-opacity:1;fill-rule:nonzero;stroke:none;stroke-width:0.352778"
       id="path279" />
    <g
       id="g281"
       transform="matrix(0.35277777,5.0961924e-8,-0.27224284,0.22435678,-96.02877,75.034707)">
      <path
         d="m 1244.983,741.385 h 83.84 v 38.781 h -83.844 v -38.781 z"
         style="fill:#b3b3b3;fill-opacity:1;fill-rule:nonzero;stroke:#000000;stroke-width:0.111126;stroke-linecap:butt;stroke-linejoin:miter;stroke-miterlimit:4;stroke-dasharray:none;stroke-opacity:1"
         id="path283" />
    </g>
    <g
       id="g285"
       transform="matrix(0.35277777,0,0,0.35277777,-96.02877,75.034707)">
      <path
         d="m 672.211,386.984 h 84.625 v 84.625 h -84.625 z"
         style="fill:#b3b3b3;fill-opacity:1;fill-rule:nonzero;stroke:#000000;stroke-width:0.164913;stroke-linecap:butt;stroke-linejoin:miter;stroke-miterlimit:4;stroke-dasharray:none;stroke-opacity:1"
         id="path287" />
    </g>
    <g
       id="g289"
       transform="matrix(0.35277777,0,0,0.35277777,-96.02877,75.034707)">
      <path
         d="m 642.129,411.539 h 84.629 v 84.625 h -84.629 z"
         style="fill:#e6e6e6;fill-opacity:1;fill-rule:nonzero;stroke:#000000;stroke-width:0.164913;stroke-linecap:butt;stroke-linejoin:miter;stroke-miterlimit:4;stroke-dasharray:none;stroke-opacity:1"
         id="path291" />
    </g>
    <path
       d="m 141.11233,241.40788 h 12.4079 v 3.94264 h -12.4079 z"
       style="fill:#e6e6e6;fill-opacity:1;fill-rule:nonzero;stroke:none;stroke-width:0.352778"
       id="path293" />
    <path
       d="m 134.08711,225.86908 h 3.94406 v 12.4079 h -3.94406 z"
       style="fill:#e6e6e6;fill-opacity:1;fill-rule:nonzero;stroke:none;stroke-width:0.352778"
       id="path295" />
    <g
       id="g297"
       transform="matrix(0.35277777,5.0961924e-8,-0.27224284,0.22435678,-96.02877,75.034707)">
      <path
         d="m 1142.291,608.314 h 83.84 v 38.788 h -83.843 v -38.788 z"
         style="fill:#b3b3b3;fill-opacity:1;fill-rule:nonzero;stroke:#000000;stroke-width:0.111126;stroke-linecap:butt;stroke-linejoin:miter;stroke-miterlimit:4;stroke-dasharray:none;stroke-opacity:1"
         id="path299" />
    </g>
    <g
       id="g301"
       transform="matrix(0.35277777,0,0,0.35277777,-96.02877,75.034707)">
      <path
         d="M 630.297,59.191 H 766.109 V 516.406 H 630.297 Z"
         style="fill:none;stroke:#000000;stroke-width:0.983778;stroke-linecap:butt;stroke-linejoin:miter;stroke-miterlimit:4;stroke-dasharray:0.983778, 0.983778;stroke-dashoffset:0;stroke-opacity:1"
         id="path303" />
    </g>
    <path
       d="m 65.000524,178.42329 c 0,-2.14136 -1.757186,-3.88056 -3.899959,-3.88056 -2.160763,0 -3.899605,1.75719 -3.899605,3.88056 0,2.16076 1.758244,3.90137 3.899605,3.90137 2.160764,0 3.899959,-1.75825 3.899959,-3.90137 z m -3.899959,3.60786 c -2.013302,0 -3.606094,-1.63019 -3.606094,-3.60786 0,-1.99531 1.628775,-3.58846 3.606094,-3.58846 1.995311,0 3.607859,1.63054 3.607859,3.58846 0,2.01471 -1.648178,3.60786 -3.607859,3.60786 z m 0.806098,-3.60786 c 0,-0.43815 -0.366536,-0.80469 -0.806098,-0.80469 -0.457552,0 -0.804686,0.40252 -0.804686,0.80469 0,0.45896 0.365125,0.82409 0.804686,0.82409 0.457553,0 0.806098,-0.40217 0.806098,-0.82409 z"
       style="fill:#000000;fill-opacity:1;fill-rule:nonzero;stroke:none;stroke-width:0.352778"
       id="path305" />
    <path
       d="m 119.03479,176.44032 c 0.27023,0 0.59372,0 0.59372,-0.32385 0,-0.35136 -0.32349,-0.35136 -0.56762,-0.35136 h -10.31875 c -0.24235,0 -0.5662,0 -0.5662,0.35136 0,0.32385 0.32385,0.32385 0.5662,0.32385 z m 0.0261,3.34998 c 0.24413,0 0.56762,0 0.56762,-0.35136 0,-0.32385 -0.32349,-0.32385 -0.59372,-0.32385 h -10.29265 c -0.24235,0 -0.5662,0 -0.5662,0.32385 0,0.35136 0.32385,0.35136 0.5662,0.35136 z"
       style="fill:#000000;fill-opacity:1;fill-rule:nonzero;stroke:none;stroke-width:0.352778"
       id="path307" />
    <text
       style="font-variant:normal;font-weight:normal;font-size:5.86207px;font-family:'DejaVu Sans';-inkscape-font-specification:DejaVuSans;writing-mode:lr-tb;fill:#000000;fill-opacity:1;fill-rule:nonzero;stroke:none;stroke-width:0.352778"
       id="text313"
       x="17.21377"
       y="152.72495"><tspan
         x="17.21377 21.727577 25.332764 29.049328 31.347267 35.057972 39.847298 41.471096 44.519382"
         y="152.72495"
         sodipodi:role="line"
         id="tspan309"
         style="stroke-width:0.352778">Depthwise</tspan><tspan
         x="226.56059 229.28059 231.68993 235.27753 238.98824 242.05411 244.11755 247.69928 250.00308 255.71277 259.30035 261.5983 263.22211 266.80383 270.51453"
         y="111.8269"
         sodipodi:role="line"
         id="tspan311"
         style="stroke-width:0.352778">Transformations</tspan></text>
    <text
       transform="rotate(-39.765687)"
       style="font-variant:normal;font-weight:normal;font-size:5.86207px;font-family:'DejaVu Sans';-inkscape-font-specification:DejaVuSans;writing-mode:lr-tb;fill:#000000;fill-opacity:1;fill-rule:nonzero;stroke:none;stroke-width:0.352778"
       id="text317"
       x="55.748409"
       y="261.47913"><tspan
         x="55.748409 58.333591 61.938778 67.648453 71.365021 72.988815 76.576416 78.874352"
         y="261.47913"
         sodipodi:role="line"
         id="tspan315"
         style="stroke-width:0.352778">Template</tspan></text>
    <text
       style="font-variant:normal;font-weight:normal;font-size:5.86207px;font-family:'DejaVu Sans';-inkscape-font-specification:DejaVuSans;writing-mode:lr-tb;fill:#000000;fill-opacity:1;fill-rule:nonzero;stroke:none;stroke-width:0.352778"
       id="text321"
       x="76.032295"
       y="123.47917"><tspan
         x="76.032295 79.361961 82.943695 84.567497 88.278198 90.576141 95.365463 96.989265 100.03755"
         y="123.47917"
         sodipodi:role="line"
         id="tspan319"
         style="stroke-width:0.352778">Pointwise</tspan></text>
    <path
       d="m 141.23615,76.622207 -1.89865,1.920875 0.24236,0.244122 1.65629,-1.436158 1.61255,1.436158 0.24236,-0.244122 z"
       style="fill:#000000;fill-opacity:1;fill-rule:nonzero;stroke:none;stroke-width:0.352778"
       id="path323" />
    <path
       d="m 135.92685,88.156276 c 0.17639,-1.169811 0.30868,-2.339975 0.30868,-3.533069 0,-0.4191 0,-1.987197 -0.48507,-3.004256 -0.5528,-1.125714 -1.30387,-1.28023 -1.76671,-1.28023 -0.48648,0 -0.97296,0.396875 -0.97296,0.5969 0,0.110066 0.0663,0.110066 0.24412,0.110066 0.61736,0.06632 1.21391,0.352778 1.58997,1.502128 0.30868,0.883356 0.35278,1.9431 0.35278,2.561872 0,2.119136 -0.50836,4.570942 -0.59655,4.902906 -0.0222,0.176389 -0.0441,0.242711 -0.0441,0.375003 0,0.0441 0,0.220486 0.0882,0.220486 0.0882,0 0.0882,-0.02222 0.31009,-0.286809 1.56809,-1.854905 3.13619,-3.997677 4.68101,-6.669616 0.53057,-0.97155 0.90699,-1.722614 0.97296,-1.810808 0.4191,1.302102 0.88335,3.246613 1.17016,5.543902 0.066,0.749653 0.15416,1.610783 0.15416,2.361847 0,0.0441 0.0222,0.706967 0.0222,0.751064 0,0.0441 0.0441,0.11042 0.0882,0.11042 0.066,0 0.0882,-0.02222 0.30974,-0.264584 1.74484,-1.965325 4.77097,-6.073069 4.77097,-8.502649 0,-1.127125 -0.5969,-1.502128 -1.03893,-1.502128 -0.375,0 -0.59549,0.861483 -0.59549,1.081969 0,0.198261 0.0663,0.198261 0.17639,0.221545 0.19861,0.02223 0.83926,0.132291 0.83926,1.059744 0,1.612547 -3.44523,5.940778 -3.53484,5.940778 -0.0219,0 -0.0219,-0.02187 -0.0441,-0.330553 -0.15417,-3.026128 -0.9712,-6.273094 -1.54446,-7.818967 -0.0455,-0.08819 -0.0455,-0.154516 -0.20003,-0.154516 -0.26458,0 -0.86113,0.352778 -0.86113,0.618772 0,0.0441 0.0441,0.176389 0.0882,0.242711 -0.86148,1.634067 -2.14171,3.997678 -4.48274,6.956072 z"
       style="fill:#000000;fill-opacity:1;fill-rule:nonzero;stroke:none;stroke-width:0.352778"
       id="path325" />
    <path
       d="m 148.28501,91.306582 c -0.0663,0.331964 -0.0882,0.420158 -0.86114,0.420158 -0.17638,0 -0.2868,0 -0.2868,0.220486 0,0.132292 0.11042,0.132292 0.2868,0.132292 h 3.5112 c 2.18687,0 4.28555,-2.00907 4.28555,-4.151842 0,-1.435805 -0.99484,-2.583744 -2.58516,-2.583744 h -3.59939 c -0.19861,0 -0.30868,0 -0.30868,0.220486 0,0.132292 0.11007,0.132292 0.33055,0.132292 0.15452,0 0.19862,0 0.37642,0.02187 0.19826,0.02364 0.19826,0.04551 0.19826,0.155928 0,0 0,0.06597 -0.0219,0.198261 z m 2.20909,-5.255684 c 0.0882,-0.30868 0.0882,-0.354188 0.50694,-0.354188 h 1.25942 c 1.10384,0 2.03129,0.55245 2.03129,1.900061 0,0.220486 -0.11006,1.921227 -1.08161,3.046941 -0.39688,0.442384 -1.23614,1.083028 -2.45146,1.083028 h -1.32432 c -0.3101,0 -0.33232,-0.02187 -0.33232,-0.110067 0,0 0,-0.0441 0.0441,-0.199672 z"
       style="fill:#000000;fill-opacity:1;fill-rule:nonzero;stroke:none;stroke-width:0.352778"
       id="path327" />
    <path
       d="m 166.15002,86.513743 0.17639,-0.264583 c 0.19826,-0.264584 0.44098,-0.506942 0.9271,-0.55245 0.11042,0 0.22084,0 0.22084,-0.198614 0,-0.06597 -0.0444,-0.154164 -0.13264,-0.154164 -0.22014,0 -0.50836,0.0441 -0.75071,0.0441 -0.33091,0 -0.77329,-0.0441 -1.08197,-0.0441 -0.066,0 -0.2219,0 -0.2219,0.220486 0,0.132292 0.1337,0.132292 0.1778,0.132292 0.22049,0.02187 0.55139,0.08961 0.55139,0.354188 0,0.110067 -0.11042,0.286456 -0.15452,0.352778 l -2.78235,4.572353 -0.53023,-4.991453 c 0,-0.265994 0.57432,-0.287866 0.68474,-0.287866 0.13229,0 0.26459,0 0.26459,-0.198614 0,-0.02187 0,-0.154164 -0.17639,-0.154164 -0.17639,0 -0.4191,0.02187 -0.59655,0.0441 -0.19861,0 -0.4632,0 -0.66146,0 -0.2219,0 -0.79516,-0.0441 -1.01706,-0.0441 -0.0663,0 -0.19861,0 -0.19861,0.220486 0,0.132292 0.11042,0.132292 0.24271,0.132292 0.42016,0 0.48648,0.08961 0.50835,0.1778 0,0.06597 0.0222,0.330552 0.0663,0.639233 l -2.71639,4.462286 -0.50836,-4.836936 c 0,-0.0441 -0.0219,-0.132292 -0.0219,-0.154517 0,-0.287866 0.61842,-0.287866 0.68474,-0.287866 0.1323,0 0.26459,0 0.26459,-0.198614 0,-0.0441 -0.0222,-0.154164 -0.15452,-0.154164 -0.28646,0 -0.99342,0.0441 -1.25801,0.0441 -0.33196,0 -0.75106,-0.0441 -1.03893,-0.0441 -0.11042,0 -0.19861,0.0441 -0.19861,0.220486 0,0.132292 0.11042,0.132292 0.26458,0.132292 0.46461,0 0.46461,0.06738 0.50871,0.310091 l 0.64064,6.006747 c 0.0222,0.198261 0.0441,0.264584 0.22049,0.264584 0.15452,0 0.24271,-0.08819 0.28681,-0.198614 l 3.07022,-5.057422 0.55245,4.991452 c 0.0222,0.220486 0.0663,0.264584 0.22049,0.264584 0.15452,0 0.22049,-0.08819 0.28681,-0.198614 z"
       style="fill:#000000;fill-opacity:1;fill-rule:nonzero;stroke:none;stroke-width:0.352778"
       id="path329" />
    <path
       d="m 297.22072,75.034707 -2.15547,2.181578 0.27587,0.275519 1.8796,-1.630186 1.82986,1.630186 0.27552,-0.275519 z"
       style="fill:#000000;fill-opacity:1;fill-rule:nonzero;stroke:none;stroke-width:0.352778"
       id="path331" />
    <path
       d="m 291.19457,88.127348 c 0.19968,-1.329619 0.35137,-2.65818 0.35137,-4.011436 0,-0.476602 0,-2.255661 -0.5528,-3.409244 -0.62548,-1.278819 -1.47849,-1.453797 -2.00484,-1.453797 -0.55139,0 -1.10243,0.450497 -1.10243,0.676628 0,0.125236 0.0744,0.125236 0.27552,0.125236 0.70132,0.07585 1.37795,0.401108 1.80516,1.704622 0.34996,1.0033 0.40111,2.206272 0.40111,2.907947 0,2.407356 -0.57749,5.189714 -0.67804,5.565775 -0.0247,0.199672 -0.0497,0.275519 -0.0497,0.425803 0,0.04974 0,0.250825 0.1009,0.250825 0.10054,0 0.10054,-0.02469 0.34995,-0.326673 1.78047,-2.10573 3.56059,-4.536369 5.31495,-7.569552 0.60078,-1.103842 1.028,-1.955447 1.10243,-2.055989 0.47696,1.478492 1.0033,3.684764 1.32856,6.292144 0.0758,0.851606 0.17639,1.829859 0.17639,2.681817 0,0.0508 0.0247,0.801864 0.0247,0.853017 0,0.04939 0.0497,0.125236 0.10054,0.125236 0.0744,0 0.0991,-0.02469 0.34995,-0.301625 1.9805,-2.23132 5.41585,-6.893278 5.41585,-9.650589 0,-1.278819 -0.67804,-1.704622 -1.17828,-1.704622 -0.42721,0 -0.67804,0.977194 -0.67804,1.228019 0,0.225778 0.0759,0.225778 0.20144,0.250472 0.22578,0.02505 0.95215,0.150284 0.95215,1.203325 0,1.829859 -3.9109,6.744053 -4.01003,6.744053 -0.0251,0 -0.0251,-0.02505 -0.0512,-0.376414 -0.17498,-3.433939 -1.10243,-7.118702 -1.75437,-8.874477 -0.0494,-0.09913 -0.0494,-0.174978 -0.22577,-0.174978 -0.30057,0 -0.9772,0.401108 -0.9772,0.701322 0,0.05115 0.0497,0.201436 0.10054,0.275872 -0.97825,1.855964 -2.43205,4.537781 -5.08882,7.897283 z"
       style="fill:#000000;fill-opacity:1;fill-rule:nonzero;stroke:none;stroke-width:0.352778"
       id="path333" />
    <path
       d="m 311.06161,84.858862 c 0,-0.04974 -0.0497,-0.150283 -0.15029,-0.150283 -0.0744,0 -0.0744,0.02469 -0.22436,0.174978 l -0.55281,0.626886 c -0.4258,-0.602192 -1.12712,-0.801864 -1.80375,-0.801864 -1.57938,0 -2.98344,1.278819 -2.98344,2.580922 0,0.151695 0.0494,0.602192 0.37606,1.027995 0.37642,0.427213 0.80222,0.526697 1.55434,0.72778 0.22472,0.04939 0.77752,0.174978 0.9525,0.225778 0.35137,0.07444 1.02799,0.325261 1.02799,1.152172 0,0.902758 -0.95355,1.980142 -2.20627,1.980142 -1.0033,0 -2.18158,-0.349956 -2.18158,-1.579034 0,-0.125588 0.0251,-0.375002 0.0759,-0.576086 0,-0.04974 0,-0.04974 0,-0.04974 0,-0.151342 -0.12523,-0.151342 -0.17498,-0.151342 -0.15169,0 -0.17638,0.02611 -0.20108,0.225778 l -0.57609,2.231319 c -0.0261,0.0508 -0.0512,0.100542 -0.0512,0.174978 0,0.0508 0.0512,0.125236 0.17639,0.125236 0.0497,0 0.0744,-0.02469 0.22472,-0.150283 0.12559,-0.149931 0.40111,-0.50165 0.52634,-0.625475 0.6022,0.650522 1.4538,0.775758 2.13184,0.775758 1.70321,0 3.05788,-1.453797 3.05788,-2.782358 0,-0.475192 -0.20109,-0.927453 -0.45191,-1.177925 -0.37606,-0.401109 -0.55139,-0.45085 -2.00519,-0.802217 -0.22578,-0.04974 -0.60078,-0.125236 -0.70132,-0.174978 -0.27552,-0.100541 -0.75248,-0.376061 -0.75248,-1.0033 0,-0.902405 1.0033,-1.779058 2.15548,-1.779058 1.22907,0 1.80516,0.676628 1.80516,1.72967 0,0.14993 -0.0497,0.400755 -0.0497,0.501297 0,0.17533 0.12559,0.17533 0.20002,0.17533 0.14993,0 0.17639,-0.07585 0.20109,-0.250825 z"
       style="fill:#000000;fill-opacity:1;fill-rule:nonzero;stroke:none;stroke-width:0.352778"
       id="path335" />
    <path
       d="m 315.41206,88.969429 h 1.17828 c 0.85161,0 1.0033,0.150283 1.0033,0.50165 0,0.174978 0,0.201083 -0.0759,0.526344 -0.0247,0.04974 -0.0497,0.100542 -0.0497,0.125589 0,0.100542 0.0991,0.174978 0.20003,0.174978 0.14993,0 0.14993,-0.07444 0.22577,-0.275872 l 0.60078,-2.356203 c 0,-0.04974 0.0265,-0.200025 0.0265,-0.224719 0,-0.125589 -0.0758,-0.176389 -0.17639,-0.176389 -0.15028,0 -0.17533,0.07585 -0.22472,0.275519 -0.22613,0.878064 -0.5528,1.027995 -1.50495,1.027995 h -1.10243 l 0.70133,-2.807053 c 0.0758,-0.326672 0.10089,-0.376061 0.55139,-0.376061 h 1.72931 c 1.48026,0 1.75578,0.351366 1.75578,1.303514 0,0.351366 -0.0512,0.60078 -0.0512,0.676627 0,0.100542 0.0512,0.201084 0.20143,0.201084 0.17498,0 0.17498,-0.100542 0.19968,-0.301625 l 0.20108,-1.929342 c 0.0251,-0.351367 -0.0494,-0.351367 -0.32632,-0.351367 h -5.96583 c -0.22577,0 -0.35136,0 -0.35136,0.250825 0,0.150284 0.12559,0.150284 0.35136,0.150284 0,0 0.22613,0 0.42616,0.02469 0.22578,0.02469 0.25047,0.05115 0.25047,0.150284 0,0.07585 -0.0247,0.201083 -0.0494,0.250825 l -1.45379,5.841294 c -0.12559,0.45085 -0.12559,0.526697 -1.0033,0.526697 -0.17498,0 -0.32527,0 -0.32527,0.224367 0,0.125589 0.0744,0.176389 0.17498,0.176389 0.32667,0 1.15359,-0.0508 1.47885,-0.0508 l 0.85301,0.02611 c 0.30022,0 0.60078,0.02469 0.8763,0.02469 0.0759,0 0.25083,0 0.25083,-0.250825 0,-0.149931 -0.12559,-0.149931 -0.37642,-0.149931 -0.0247,0 -0.30021,0 -0.60078,-0.02646 -0.22577,-0.02469 -0.32632,-0.02469 -0.32632,-0.199672 0,-0.0247 0,-0.07585 0.0261,-0.201084 z"
       style="fill:#000000;fill-opacity:1;fill-rule:nonzero;stroke:none;stroke-width:0.352778"
       id="path337" />
    <text
       style="font-variant:normal;font-weight:normal;font-size:6.51955px;font-family:'DejaVu Sans';-inkscape-font-specification:DejaVuSans;writing-mode:lr-tb;fill:#000000;fill-opacity:1;fill-rule:nonzero;stroke:none;stroke-width:0.352778"
       id="text341"
       x="-96.420326"
       y="271.2254"><tspan
         x="-96.420326 -92.430367 -89.887749 -87.821053 -83.68766 -81.132004 -77.142044 -72.995621 -68.862228 -64.872269 -62.297054 -58.163666 -56.09697 -52.517746 -48.534306 -44.407436 -40.554386 -36.570953 -34.765038 -30.63817 -28.06295 -26.257038 -22.273603"
         y="271.2254"
         sodipodi:role="line"
         id="tspan339"
         style="stroke-width:0.352778">a) Standard convolution</tspan></text>
    <text
       style="font-variant:normal;font-weight:normal;font-size:6.35413px;font-family:'DejaVu Sans';-inkscape-font-specification:DejaVuSans;writing-mode:lr-tb;fill:#000000;fill-opacity:1;fill-rule:nonzero;stroke:none;stroke-width:0.352778"
       id="text345"
       x="28.928303"
       y="271.09973"><tspan
         x="28.928303 32.956814 35.434921 37.449177 42.341846 46.249634 50.278145 52.768959 56.791115 61.98243 63.742523 67.046669 70.954453 72.987762 77.016281 80.924065 84.952576 88.841293 91.452835 95.34156 99.370071 101.13017 105.03795 107.0522 111.50644 115.38881 119.41096 123.16625 127.04861 128.80872 132.83086 135.32167 137.08177 140.96414"
         y="271.09973"
         sodipodi:role="line"
         id="tspan343"
         style="stroke-width:0.352778">b) Depthwise Separable Convolution</tspan></text>
    <text
       style="font-variant:normal;font-weight:normal;font-size:6.56643px;font-family:'DejaVu Sans';-inkscape-font-specification:DejaVuSans;writing-mode:lr-tb;fill:#000000;fill-opacity:1;fill-rule:nonzero;stroke:none;stroke-width:0.352778"
       id="text349"
       x="219.94295"
       y="271.26086"><tspan
         x="219.94295 223.5479 226.10881 228.19037 232.35347 236.51659 240.53523 243.12897 244.94786 248.96652 250.78542 252.86697"
         y="271.26086"
         sodipodi:role="line"
         id="tspan347"
         style="stroke-width:0.352778">c) Spatial A</tspan></text>
    <text
       style="font-variant:normal;font-weight:normal;font-size:6.56643px;font-family:'DejaVu Sans';-inkscape-font-specification:DejaVuSans;writing-mode:lr-tb;fill:#000000;fill-opacity:1;fill-rule:nonzero;stroke:none;stroke-width:0.352778"
       id="text353"
       x="257.3584"
       y="271.26086"><tspan
         x="257.3584"
         y="271.26086"
         id="tspan351"
         style="stroke-width:0.352778"></tspan></text>
    <text
       style="font-variant:normal;font-weight:normal;font-size:6.56643px;font-family:'DejaVu Sans';-inkscape-font-specification:DejaVuSans;writing-mode:lr-tb;fill:#000000;fill-opacity:1;fill-rule:nonzero;stroke:none;stroke-width:0.352778"
       id="text357"
       x="263.70157"
       y="271.26086"><tspan
         x="263.70157 267.85812 271.89648 273.97803 279.03418 283.07251 286.67749 290.68958 297.08527 301.24838 305.26044 308.67499 310.4939 313.06793 314.88681 318.8989"
         y="271.26086"
         sodipodi:role="line"
         id="tspan355"
         style="stroke-width:0.352778">ne Decomposition</tspan></text>
    <g
       id="g359"
       transform="matrix(0.35277777,5.0961924e-8,-0.27224284,0.22435678,-96.02877,75.034707)">
      <path
         d="m 473.643,494.641 h 83.843 v 38.788 h -83.84 z"
         style="fill:#b3b3b3;fill-opacity:1;fill-rule:nonzero;stroke:#000000;stroke-width:0.111126;stroke-linecap:butt;stroke-linejoin:miter;stroke-miterlimit:4;stroke-dasharray:none;stroke-opacity:1"
         id="path361" />
    </g>
    <g
       id="g363"
       transform="matrix(0.35277777,0,0,0.35277777,-96.02877,75.034707)">
      <path
         d="m 91.289,230.062 h 84.625 v 84.629 H 91.289 Z"
         style="fill:#b3b3b3;fill-opacity:1;fill-rule:nonzero;stroke:#000000;stroke-width:0.164913;stroke-linecap:butt;stroke-linejoin:miter;stroke-miterlimit:4;stroke-dasharray:none;stroke-opacity:1"
         id="path365" />
    </g>
    <g
       id="g367"
       transform="matrix(0.35277777,0,0,0.35277777,-96.02877,75.034707)">
      <path
         d="m 61.207,254.621 h 84.625 v 84.625 H 61.207 Z"
         style="fill:#e6e6e6;fill-opacity:1;fill-rule:nonzero;stroke:#000000;stroke-width:0.164913;stroke-linecap:butt;stroke-linejoin:miter;stroke-miterlimit:4;stroke-dasharray:none;stroke-opacity:1"
         id="path369" />
    </g>
    <path
       d="m -68.521629,169.7954 h 12.4079 v 3.94406 h -12.4079 z"
       style="fill:#e6e6e6;fill-opacity:1;fill-rule:nonzero;stroke:none;stroke-width:0.352778"
       id="path371" />
    <path
       d="m -53.703551,177.00406 h 3.944055 v 12.4079 h -3.944055 z"
       style="fill:#e6e6e6;fill-opacity:1;fill-rule:nonzero;stroke:none;stroke-width:0.352778"
       id="path373" />
    <g
       id="g375"
       transform="matrix(0.35277777,5.0961924e-8,-0.27224284,0.22435678,-96.02877,75.034707)">
      <path
         d="m 370.956,361.577 h 83.843 l 0.004,38.788 h -83.844 z"
         style="fill:#b3b3b3;fill-opacity:1;fill-rule:nonzero;stroke:#000000;stroke-width:0.111126;stroke-linecap:butt;stroke-linejoin:miter;stroke-miterlimit:4;stroke-dasharray:none;stroke-opacity:1"
         id="path377" />
    </g>
    <g
       id="g379"
       transform="matrix(0.35277777,5.0961924e-8,-0.27224284,0.22435678,-96.02877,75.034707)">
      <path
         d="m 284.887,250.048 h 83.844 l 0.003,38.788 H 284.89 Z"
         style="fill:#b3b3b3;fill-opacity:1;fill-rule:nonzero;stroke:#000000;stroke-width:0.111126;stroke-linecap:butt;stroke-linejoin:miter;stroke-miterlimit:4;stroke-dasharray:none;stroke-opacity:1"
         id="path381" />
    </g>
    <g
       id="g383"
       transform="matrix(0.35277777,0,0,0.35277777,-96.02877,75.034707)">
      <path
         d="m 91.289,74.508 h 84.625 v 84.625 H 91.289 Z"
         style="fill:#b3b3b3;fill-opacity:1;fill-rule:nonzero;stroke:#000000;stroke-width:0.164913;stroke-linecap:butt;stroke-linejoin:miter;stroke-miterlimit:4;stroke-dasharray:none;stroke-opacity:1"
         id="path385" />
    </g>
    <g
       id="g387"
       transform="matrix(0.35277777,0,0,0.35277777,-96.02877,75.034707)">
      <path
         d="m 61.207,99.062 h 84.625 v 84.629 H 61.207 Z"
         style="fill:#e6e6e6;fill-opacity:1;fill-rule:nonzero;stroke:#000000;stroke-width:0.164913;stroke-linecap:butt;stroke-linejoin:miter;stroke-miterlimit:4;stroke-dasharray:none;stroke-opacity:1"
         id="path389" />
    </g>
    <path
       d="m -61.316143,113.50124 h 12.4079 v 3.94406 h -12.4079 z"
       style="fill:#e6e6e6;fill-opacity:1;fill-rule:nonzero;stroke:none;stroke-width:0.352778"
       id="path391" />
    <path
       d="m -67.117573,122.78776 h 3.944055 v 12.40649 h -3.944055 z"
       style="fill:#e6e6e6;fill-opacity:1;fill-rule:nonzero;stroke:none;stroke-width:0.352778"
       id="path393" />
    <g
       id="g395"
       transform="matrix(0.35277777,5.0961924e-8,-0.27224284,0.22435678,-96.02877,75.034707)">
      <path
         d="m 182.204,116.984 h 83.839 l -0.001,38.781 h -83.844 z"
         style="fill:#b3b3b3;fill-opacity:1;fill-rule:nonzero;stroke:#000000;stroke-width:0.111126;stroke-linecap:butt;stroke-linejoin:miter;stroke-miterlimit:4;stroke-dasharray:none;stroke-opacity:1"
         id="path397" />
    </g>
    <g
       id="g399"
       transform="matrix(0.35277777,5.0961924e-8,-0.27224284,0.22435678,-96.02877,75.034707)">
      <path
         d="m 664.058,741.385 h 83.843 l -10e-4,38.781 h -83.844 z"
         style="fill:#b3b3b3;fill-opacity:1;fill-rule:nonzero;stroke:#000000;stroke-width:0.111126;stroke-linecap:butt;stroke-linejoin:miter;stroke-miterlimit:4;stroke-dasharray:none;stroke-opacity:1"
         id="path401" />
    </g>
    <g
       id="g403"
       transform="matrix(0.35277777,0,0,0.35277777,-96.02877,75.034707)">
      <path
         d="m 91.289,386.984 h 84.625 v 84.625 H 91.289 Z"
         style="fill:#b3b3b3;fill-opacity:1;fill-rule:nonzero;stroke:#000000;stroke-width:0.164913;stroke-linecap:butt;stroke-linejoin:miter;stroke-miterlimit:4;stroke-dasharray:none;stroke-opacity:1"
         id="path405" />
    </g>
    <g
       id="g407"
       transform="matrix(0.35277777,0,0,0.35277777,-96.02877,75.034707)">
      <path
         d="m 61.207,411.539 h 84.625 v 84.625 H 61.207 Z"
         style="fill:#e6e6e6;fill-opacity:1;fill-rule:nonzero;stroke:#000000;stroke-width:0.164913;stroke-linecap:butt;stroke-linejoin:miter;stroke-miterlimit:4;stroke-dasharray:none;stroke-opacity:1"
         id="path409" />
    </g>
    <path
       d="m -63.82404,241.40788 h 12.406488 v 3.94264 H -63.82404 Z"
       style="fill:#e6e6e6;fill-opacity:1;fill-rule:nonzero;stroke:none;stroke-width:0.352778"
       id="path411" />
    <path
       d="m -70.849257,225.86908 h 3.944056 v 12.4079 h -3.944056 z"
       style="fill:#e6e6e6;fill-opacity:1;fill-rule:nonzero;stroke:none;stroke-width:0.352778"
       id="path413" />
    <g
       id="g415"
       transform="matrix(0.35277777,5.0961924e-8,-0.27224284,0.22435678,-96.02877,75.034707)">
      <path
         d="m 561.37,608.315 h 83.839 l 0.004,38.787 h -83.844 z"
         style="fill:#b3b3b3;fill-opacity:1;fill-rule:nonzero;stroke:#000000;stroke-width:0.111126;stroke-linecap:butt;stroke-linejoin:miter;stroke-miterlimit:4;stroke-dasharray:none;stroke-opacity:1"
         id="path417" />
    </g>
    <g
       id="g419"
       transform="matrix(0.35277777,0,0,0.35277777,-96.02877,75.034707)">
      <path
         d="M 49.375,59.191 H 185.187 V 514.644 H 49.375 Z"
         style="fill:none;stroke:#000000;stroke-width:0.98189;stroke-linecap:butt;stroke-linejoin:miter;stroke-miterlimit:4;stroke-dasharray:0.98189, 0.98189;stroke-dashoffset:0;stroke-opacity:1"
         id="path421" />
    </g>
    <path
       d="m 152.42732,198.91756 c 0,-0.32949 -0.27411,-0.62159 -0.6036,-0.62159 -0.34713,0 -0.6216,0.2921 -0.6216,0.62159 0,0.34713 0.27447,0.62159 0.6216,0.62159 0.32949,0 0.6036,-0.27446 0.6036,-0.62159 z"
       style="fill:#000000;fill-opacity:1;fill-rule:nonzero;stroke:none;stroke-width:0.352778"
       id="path423" />
    <path
       d="m 152.42732,203.58093 c 0,-0.3295 -0.27411,-0.6216 -0.6036,-0.6216 -0.34713,0 -0.6216,0.2921 -0.6216,0.6216 0,0.34572 0.27447,0.62018 0.6216,0.62018 0.32949,0 0.6036,-0.27446 0.6036,-0.62018 z"
       style="fill:#000000;fill-opacity:1;fill-rule:nonzero;stroke:none;stroke-width:0.352778"
       id="path425" />
    <path
       d="m 152.42732,208.2316 c 0,-0.32773 -0.27411,-0.62124 -0.6036,-0.62124 -0.34713,0 -0.6216,0.29351 -0.6216,0.62124 0,0.34748 0.27447,0.62159 0.6216,0.62159 0.32949,0 0.6036,-0.27411 0.6036,-0.62159 z"
       style="fill:#000000;fill-opacity:1;fill-rule:nonzero;stroke:none;stroke-width:0.352778"
       id="path427" />
    <path
       d="m 303.64093,198.25328 c 0,-0.32914 -0.27411,-0.62124 -0.60361,-0.62124 -0.34713,0 -0.62159,0.2921 -0.62159,0.62124 0,0.34607 0.27446,0.62018 0.62159,0.62018 0.3295,0 0.60361,-0.27411 0.60361,-0.62018 z"
       style="fill:#000000;fill-opacity:1;fill-rule:nonzero;stroke:none;stroke-width:0.352778"
       id="path429" />
    <path
       d="m 303.64093,202.91524 c 0,-0.3295 -0.27411,-0.6216 -0.60361,-0.6216 -0.34713,0 -0.62159,0.2921 -0.62159,0.6216 0,0.34713 0.27446,0.62159 0.62159,0.62159 0.3295,0 0.60361,-0.27446 0.60361,-0.62159 z"
       style="fill:#000000;fill-opacity:1;fill-rule:nonzero;stroke:none;stroke-width:0.352778"
       id="path431" />
    <path
       d="m 303.64093,207.56767 c 0,-0.32949 -0.27411,-0.62159 -0.60361,-0.62159 -0.34713,0 -0.62159,0.2921 -0.62159,0.62159 0,0.34713 0.27446,0.62124 0.62159,0.62124 0.3295,0 0.60361,-0.27411 0.60361,-0.62124 z"
       style="fill:#000000;fill-opacity:1;fill-rule:nonzero;stroke:none;stroke-width:0.352778"
       id="path433" />
    <path
       d="m -53.346893,198.17073 c 0,-0.3295 -0.274108,-0.6216 -0.603603,-0.6216 -0.347133,0 -0.61983,0.2921 -0.61983,0.6216 0,0.34713 0.272697,0.62159 0.61983,0.62159 0.329495,0 0.603603,-0.27446 0.603603,-0.62159 z"
       style="fill:#000000;fill-opacity:1;fill-rule:nonzero;stroke:none;stroke-width:0.352778"
       id="path435" />
    <path
       d="m -53.346893,202.8341 c 0,-0.3295 -0.274108,-0.6216 -0.603603,-0.6216 -0.347133,0 -0.61983,0.2921 -0.61983,0.6216 0,0.34713 0.272697,0.62124 0.61983,0.62124 0.329495,0 0.603603,-0.27411 0.603603,-0.62124 z"
       style="fill:#000000;fill-opacity:1;fill-rule:nonzero;stroke:none;stroke-width:0.352778"
       id="path437" />
    <path
       d="m -53.346893,207.48477 c 0,-0.32773 -0.274108,-0.62019 -0.603603,-0.62019 -0.347133,0 -0.61983,0.29246 -0.61983,0.62019 0,0.34748 0.272697,0.62159 0.61983,0.62159 0.329495,0 0.603603,-0.27411 0.603603,-0.62159 z"
       style="fill:#000000;fill-opacity:1;fill-rule:nonzero;stroke:none;stroke-width:0.352778"
       id="path439" />
  </g>
</svg>
