<?xml version="1.0" encoding="UTF-8" standalone="no"?>
<!-- Created with Inkscape (http://www.inkscape.org/) -->

<svg
   xmlns:dc="http://purl.org/dc/elements/1.1/"
   xmlns:cc="http://creativecommons.org/ns#"
   xmlns:rdf="http://www.w3.org/1999/02/22-rdf-syntax-ns#"
   xmlns:svg="http://www.w3.org/2000/svg"
   xmlns="http://www.w3.org/2000/svg"
   xmlns:sodipodi="http://sodipodi.sourceforge.net/DTD/sodipodi-0.dtd"
   xmlns:inkscape="http://www.inkscape.org/namespaces/inkscape"
   width="139.36499mm"
   height="45.535679mm"
   viewBox="0 0 139.36499 45.535679"
   version="1.1"
   id="svg16018"
   inkscape:version="0.92.4 (5da689c313, 2019-01-14)"
   sodipodi:docname="sbf.svg">
  <defs
     id="defs16012" />
  <sodipodi:namedview
     id="base"
     pagecolor="#ffffff"
     bordercolor="#666666"
     borderopacity="1.0"
     inkscape:pageopacity="0.0"
     inkscape:pageshadow="2"
     inkscape:zoom="1.4"
     inkscape:cx="307.14319"
     inkscape:cy="50.678545"
     inkscape:document-units="mm"
     inkscape:current-layer="layer1"
     showgrid="false"
     inkscape:window-width="1920"
     inkscape:window-height="1017"
     inkscape:window-x="1912"
     inkscape:window-y="-5"
     inkscape:window-maximized="1" />
  <metadata
     id="metadata16015">
    <rdf:RDF>
      <cc:Work
         rdf:about="">
        <dc:format>image/svg+xml</dc:format>
        <dc:type
           rdf:resource="http://purl.org/dc/dcmitype/StillImage" />
        <dc:title></dc:title>
      </cc:Work>
    </rdf:RDF>
  </metadata>
  <g
     inkscape:label="Layer 1"
     inkscape:groupmode="layer"
     id="layer1"
     transform="translate(86.691424,-126.06549)">
    <path
       d="m -84.650804,145.69155 h 5.554839 l -1.982664,1.63422 h -5.554839 z"
       style="fill:#6687a1;fill-opacity:1;fill-rule:nonzero;stroke:#000000;stroke-width:0.00587175;stroke-linecap:butt;stroke-linejoin:miter;stroke-miterlimit:4;stroke-dasharray:none;stroke-opacity:1"
       id="path16577"
       inkscape:connector-curvature="0" />
    <path
       d="m -84.693472,140.09123 h 5.607403 v 5.6074 h -5.607403 z"
       style="fill:#6687a1;fill-opacity:1;fill-rule:nonzero;stroke:#000000;stroke-width:0.01092659;stroke-linecap:butt;stroke-linejoin:miter;stroke-miterlimit:4;stroke-dasharray:none;stroke-opacity:1"
       id="path16581"
       inkscape:connector-curvature="0" />
    <path
       d="m -86.685961,141.71859 h 5.607403 v 5.60741 h -5.607403 z"
       style="fill:#488fbf;fill-opacity:1;fill-rule:nonzero;stroke:#000000;stroke-width:0.01092659;stroke-linecap:butt;stroke-linejoin:miter;stroke-miterlimit:4;stroke-dasharray:none;stroke-opacity:1"
       id="path16585"
       inkscape:connector-curvature="0" />
    <path
       inkscape:connector-curvature="0"
       id="path16587"
       style="fill:#ffffff;fill-opacity:1;fill-rule:nonzero;stroke:none;stroke-width:0.35277778"
       d="m -84.222161,142.38005 h 2.330098 v 0.74013 h -2.330098 z" />
    <path
       inkscape:connector-curvature="0"
       id="path16589"
       style="fill:#ffffff;fill-opacity:1;fill-rule:nonzero;stroke:none;stroke-width:0.35277778"
       d="m -85.312244,144.12348 h 0.741539 v 2.3301 h -0.741539 z" />
    <path
       d="m -84.650663,140.0842 h 5.554839 l -1.982937,1.63444 h -5.554838 z"
       style="fill:#6687a1;fill-opacity:1;fill-rule:nonzero;stroke:#000000;stroke-width:0.00587175;stroke-linecap:butt;stroke-linejoin:miter;stroke-miterlimit:4;stroke-dasharray:none;stroke-opacity:1"
       id="path16593"
       inkscape:connector-curvature="0" />
    <path
       d="m -72.618965,145.69155 h 5.554839 l -1.983017,1.63422 h -5.554839 z"
       style="fill:#6687a1;fill-opacity:1;fill-rule:nonzero;stroke:#000000;stroke-width:0.00587175;stroke-linecap:butt;stroke-linejoin:miter;stroke-miterlimit:4;stroke-dasharray:none;stroke-opacity:1"
       id="path16597"
       inkscape:connector-curvature="0" />
    <path
       d="m -72.661633,140.09123 h 5.607403 v 5.6074 h -5.607403 z"
       style="fill:#6687a1;fill-opacity:1;fill-rule:nonzero;stroke:#000000;stroke-width:0.01092659;stroke-linecap:butt;stroke-linejoin:miter;stroke-miterlimit:4;stroke-dasharray:none;stroke-opacity:1"
       id="path16601"
       inkscape:connector-curvature="0" />
    <path
       d="m -74.654475,141.71859 h 5.607403 v 5.60741 h -5.607403 z"
       style="fill:#488fbf;fill-opacity:1;fill-rule:nonzero;stroke:#000000;stroke-width:0.01092659;stroke-linecap:butt;stroke-linejoin:miter;stroke-miterlimit:4;stroke-dasharray:none;stroke-opacity:1"
       id="path16605"
       inkscape:connector-curvature="0" />
    <path
       inkscape:connector-curvature="0"
       id="path16607"
       style="fill:#ffffff;fill-opacity:1;fill-rule:nonzero;stroke:none;stroke-width:0.35277778"
       d="m -73.543578,142.64605 h 2.330098 v 0.74012 h -2.330098 z" />
    <path
       inkscape:connector-curvature="0"
       id="path16609"
       style="fill:#ffffff;fill-opacity:1;fill-rule:nonzero;stroke:none;stroke-width:0.35277778"
       d="m -70.760161,143.9993 h 0.740128 v 2.3301 h -0.740128 z" />
    <path
       d="m -72.618825,140.0842 h 5.554839 l -1.983289,1.63444 h -5.554839 z"
       style="fill:#6687a1;fill-opacity:1;fill-rule:nonzero;stroke:#000000;stroke-width:0.00587175;stroke-linecap:butt;stroke-linejoin:miter;stroke-miterlimit:4;stroke-dasharray:none;stroke-opacity:1"
       id="path16613"
       inkscape:connector-curvature="0" />
    <path
       d="m -82.172875,139.87215 c 0,0 0.385587,-5.65679 6.378928,-5.55907"
       style="fill:none;stroke:#808080;stroke-width:0.15374514;stroke-linecap:butt;stroke-linejoin:miter;stroke-miterlimit:4;stroke-dasharray:none;stroke-opacity:1"
       id="path16617"
       inkscape:connector-curvature="0" />
    <path
       d="m -77.331883,134.28833 -0.624283,0.60481 2.162053,-0.58026 -2.142905,-0.65025 z"
       style="fill:#808080;fill-opacity:1;fill-rule:evenodd;stroke:#808080;stroke-width:0.16399498;stroke-linecap:butt;stroke-linejoin:miter;stroke-miterlimit:4;stroke-dasharray:none;stroke-opacity:1"
       id="path16621"
       inkscape:connector-curvature="0" />
    <path
       d="m -72.619153,164.38743 h 5.554839 l -1.982664,1.63422 h -5.554839 z"
       style="fill:#6687a1;fill-opacity:1;fill-rule:nonzero;stroke:#000000;stroke-width:0.00587175;stroke-linecap:butt;stroke-linejoin:miter;stroke-miterlimit:4;stroke-dasharray:none;stroke-opacity:1"
       id="path16625"
       inkscape:connector-curvature="0" />
    <path
       d="m -72.661633,158.78845 h 5.607403 v 5.60599 h -5.607403 z"
       style="fill:#6687a1;fill-opacity:1;fill-rule:nonzero;stroke:#000000;stroke-width:0.01092659;stroke-linecap:butt;stroke-linejoin:miter;stroke-miterlimit:4;stroke-dasharray:none;stroke-opacity:1"
       id="path16629"
       inkscape:connector-curvature="0" />
    <path
       d="m -74.654475,160.4144 h 5.607403 v 5.60741 h -5.607403 z"
       style="fill:#488fbf;fill-opacity:1;fill-rule:nonzero;stroke:#000000;stroke-width:0.01092659;stroke-linecap:butt;stroke-linejoin:miter;stroke-miterlimit:4;stroke-dasharray:none;stroke-opacity:1"
       id="path16633"
       inkscape:connector-curvature="0" />
    <path
       inkscape:connector-curvature="0"
       id="path16635"
       style="fill:#ffffff;fill-opacity:1;fill-rule:nonzero;stroke:none;stroke-width:0.35277778"
       d="m -72.969255,164.37081 h 2.330097 v 0.74153 h -2.330097 z" />
    <path
       inkscape:connector-curvature="0"
       id="path16637"
       style="fill:#ffffff;fill-opacity:1;fill-rule:nonzero;stroke:none;stroke-width:0.35277778"
       d="m -70.484641,161.42864 h 0.740127 v 2.3301 h -0.740127 z" />
    <path
       d="m -72.619013,158.78008 h 5.554839 l -1.982936,1.63444 h -5.555192 z"
       style="fill:#6687a1;fill-opacity:1;fill-rule:nonzero;stroke:#000000;stroke-width:0.00587175;stroke-linecap:butt;stroke-linejoin:miter;stroke-miterlimit:4;stroke-dasharray:none;stroke-opacity:1"
       id="path16641"
       inkscape:connector-curvature="0" />
    <path
       d="m -85.286138,147.86045 c 0,0 0.573264,14.58807 9.472788,14.33442"
       style="fill:none;stroke:#808080;stroke-width:0.15374514;stroke-linecap:butt;stroke-linejoin:miter;stroke-miterlimit:4;stroke-dasharray:none;stroke-opacity:1"
       id="path16645"
       inkscape:connector-curvature="0" />
    <path
       d="m -77.349711,162.23891 -0.598417,0.63245 2.134754,-0.67661 -2.169094,-0.55248 z"
       style="fill:#808080;fill-opacity:1;fill-rule:evenodd;stroke:#808080;stroke-width:0.16399506;stroke-linecap:butt;stroke-linejoin:miter;stroke-miterlimit:4;stroke-dasharray:none;stroke-opacity:1"
       id="path16649"
       inkscape:connector-curvature="0" />
    <path
       d="m -78.489522,143.49906 2.629253,0.0152"
       style="fill:none;stroke:#808080;stroke-width:0.15374514;stroke-linecap:butt;stroke-linejoin:miter;stroke-miterlimit:4;stroke-dasharray:none;stroke-opacity:1"
       id="path16653"
       inkscape:connector-curvature="0" />
    <path
       d="m -77.398096,143.50584 -0.618608,0.61047 2.156373,-0.60222 -2.14823,-0.62685 z"
       style="fill:#808080;fill-opacity:1;fill-rule:evenodd;stroke:#808080;stroke-width:0.16399492;stroke-linecap:butt;stroke-linejoin:miter;stroke-miterlimit:4;stroke-dasharray:none;stroke-opacity:1"
       id="path16657"
       inkscape:connector-curvature="0" />
    <path
       inkscape:connector-curvature="0"
       id="path16659"
       style="fill:#000000;fill-opacity:1;fill-rule:nonzero;stroke:none;stroke-width:0.35277778"
       d="m -77.359575,140.73328 h 0.395464 c 0.314325,0 0.432859,-0.18309 0.432859,-0.21343 0,-0.0113 -0.0071,-0.0152 -0.02223,-0.0152 -0.02611,0 -0.08537,0.0233 -0.14605,0.0631 -0.01799,0.0152 -0.02611,0.0152 -0.0702,0.0152 h -1.041753 c -0.294922,0 -0.623006,0.25788 -0.623006,0.45226 0,0.0152 0,0.0261 0.0194,0.0261 0.05503,0 0.205317,-0.0787 0.212372,-0.13512 0,-0.0399 0.0039,-0.0854 0.05221,-0.14464 0.02611,-0.0303 0.0441,-0.0483 0.148872,-0.0483 h 0.474133 c -0.04163,0.0261 -0.05256,0.0593 -0.05539,0.0854 l -0.272697,1.07773 c -0.02611,0.11571 -0.07867,0.266 -0.14605,0.42157 -0.01517,0.0265 -0.01517,0.0346 -0.01517,0.0388 0,0.0138 0.01235,0.0138 0.02328,0.0138 0.0441,0 0.164041,-0.0635 0.197202,-0.11183 0.01517,-0.0261 0.119945,-0.26847 0.172156,-0.46567 z" />
    <path
       inkscape:connector-curvature="0"
       id="path16661"
       style="fill:#000000;fill-opacity:1;fill-rule:nonzero;stroke:none;stroke-width:0.35277778"
       d="m -76.663544,141.50763 c 0,-0.0452 0,-0.0452 -0.04974,-0.0452 -0.107597,0.10442 -0.256116,0.10442 -0.32385,0.10442 v 0.0593 c 0.0374,0 0.148872,0 0.238478,-0.0441 v 0.84772 c 0,0.055 0,0.0783 -0.164042,0.0783 h -0.0635 v 0.0593 c 0.03034,0 0.235656,-0.008 0.294923,-0.008 0.05256,0 0.260702,0.008 0.297744,0.008 v -0.0593 h -0.0635 c -0.166511,0 -0.166511,-0.0233 -0.166511,-0.0783 z" />
    <path
       d="m -72.61927,135.38527 5.555111,-2.2e-4 -1.982937,1.63444 h -5.554838 z"
       style="fill:#6687a1;fill-opacity:1;fill-rule:nonzero;stroke:#000000;stroke-width:0.00587175;stroke-linecap:butt;stroke-linejoin:miter;stroke-miterlimit:4;stroke-dasharray:none;stroke-opacity:1"
       id="path16665"
       inkscape:connector-curvature="0" />
    <path
       d="m -72.661633,129.78483 h 5.607403 v 5.6074 h -5.607403 z"
       style="fill:#6687a1;fill-opacity:1;fill-rule:nonzero;stroke:#000000;stroke-width:0.01092659;stroke-linecap:butt;stroke-linejoin:miter;stroke-miterlimit:4;stroke-dasharray:none;stroke-opacity:1"
       id="path16669"
       inkscape:connector-curvature="0" />
    <path
       d="m -74.654475,131.41219 h 5.607403 v 5.6074 h -5.607403 z"
       style="fill:#488fbf;fill-opacity:1;fill-rule:nonzero;stroke:#000000;stroke-width:0.01092659;stroke-linecap:butt;stroke-linejoin:miter;stroke-miterlimit:4;stroke-dasharray:none;stroke-opacity:1"
       id="path16673"
       inkscape:connector-curvature="0" />
    <path
       inkscape:connector-curvature="0"
       id="path16675"
       style="fill:#ffffff;fill-opacity:1;fill-rule:nonzero;stroke:none;stroke-width:0.35277778"
       d="m -72.190675,132.07224 h 2.330097 v 0.74154 h -2.330097 z" />
    <path
       inkscape:connector-curvature="0"
       id="path16677"
       style="fill:#ffffff;fill-opacity:1;fill-rule:nonzero;stroke:none;stroke-width:0.35277778"
       d="m -73.280405,133.81708 h 0.741539 v 2.33009 h -0.741539 z" />
    <path
       d="m -72.61913,129.77792 5.554839,1e-5 -1.982936,1.63443 h -5.554839 z"
       style="fill:#6687a1;fill-opacity:1;fill-rule:nonzero;stroke:#000000;stroke-width:0.00587175;stroke-linecap:butt;stroke-linejoin:miter;stroke-miterlimit:4;stroke-dasharray:none;stroke-opacity:1"
       id="path16681"
       inkscape:connector-curvature="0" />
    <path
       inkscape:connector-curvature="0"
       id="path16683"
       style="fill:#000000;fill-opacity:1;fill-rule:nonzero;stroke:none;stroke-width:0.35277778"
       d="m -80.267169,133.12916 c 0.02469,-0.10866 0.03316,-0.13758 0.276931,-0.13758 0.0702,0 0.09525,0 0.09525,-0.0565 0,-0.0388 -0.03316,-0.0388 -0.04269,-0.0388 -0.09102,0 -0.314325,0.01 -0.405341,0.01 -0.09102,0 -0.310092,-0.01 -0.404989,-0.01 -0.01799,0 -0.05644,0 -0.05644,0.0621 0,0.0332 0.02328,0.0332 0.08537,0.0332 0.123825,0 0.209197,0 0.209197,0.0579 0,0.0138 0,0.0233 -0.0095,0.0469 l -0.409222,1.6383 c -0.02893,0.11324 -0.03316,0.14217 -0.27552,0.14217 -0.07161,0 -0.09525,0 -0.09525,0.0617 0,0.0332 0.03316,0.0332 0.04269,0.0332 0.08961,0 0.308681,-0.01 0.399698,-0.01 0.09102,0 0.314325,0.01 0.405341,0.01 0.02328,0 0.06033,0 0.06033,-0.0565 0,-0.0384 -0.02328,-0.0384 -0.08961,-0.0384 -0.05786,0 -0.07161,0 -0.128059,-0.004 -0.06738,-0.006 -0.07726,-0.0194 -0.07726,-0.0526 0,-0.0247 0.0056,-0.048 0.0099,-0.0716 z" />
    <path
       inkscape:connector-curvature="0"
       id="path16685"
       style="fill:#000000;fill-opacity:1;fill-rule:nonzero;stroke:none;stroke-width:0.35277778"
       d="m -85.247333,157.12651 h 0.37465 c 0.296334,0 0.409222,-0.17356 0.409222,-0.20249 0,-0.01 -0.0067,-0.0138 -0.02046,-0.0138 -0.02469,0 -0.08149,0.0219 -0.137936,0.0603 -0.01799,0.0141 -0.02469,0.0141 -0.06738,0.0141 h -0.985309 c -0.278341,0 -0.589844,0.24377 -0.589844,0.42686 0,0.0141 0,0.025 0.01799,0.025 0.05221,0 0.19438,-0.0744 0.201083,-0.127 0,-0.0385 0.0028,-0.0811 0.04974,-0.13759 0.02469,-0.0289 0.04269,-0.0455 0.140405,-0.0455 h 0.449439 c -0.03881,0.0247 -0.04974,0.0565 -0.05397,0.0811 l -0.257528,1.01988 c -0.02505,0.11007 -0.07444,0.25083 -0.137936,0.3997 -0.01376,0.0247 -0.01376,0.0318 -0.01376,0.0356 0,0.0138 0.01094,0.0138 0.02081,0.0138 0.04269,0 0.155575,-0.0603 0.187325,-0.10583 0.01517,-0.025 0.112889,-0.25506 0.16263,-0.44098 z" />
    <path
       inkscape:connector-curvature="0"
       id="path16687"
       style="fill:#000000;fill-opacity:1;fill-rule:nonzero;stroke:none;stroke-width:0.35277778"
       d="m -83.800591,157.95872 c 0.01376,-0.0607 0.04163,-0.11289 0.165453,-0.11713 0.0071,0 0.03175,0 0.03175,-0.0317 0,-0.0109 -0.0071,-0.0247 -0.0247,-0.0247 -0.04974,0 -0.109008,0.007 -0.16263,0.007 -0.03881,0 -0.127,-0.007 -0.165453,-0.007 -0.0071,0 -0.03175,0 -0.03175,0.036 0,0.0205 0.02081,0.0205 0.03457,0.0205 0.07444,0.004 0.09913,0.0289 0.09913,0.0677 0,0.01 0,0.0205 -0.0071,0.0342 l -0.169333,0.68897 -0.399697,-0.81985 c -0.01376,-0.0275 -0.01799,-0.0275 -0.05644,-0.0275 h -0.214842 c -0.02893,0 -0.04974,0 -0.04974,0.036 0,0.0205 0.01799,0.0205 0.05221,0.0205 0.03175,0 0.06773,0.004 0.09948,0.0109 l -0.208139,0.84067 c -0.01376,0.0593 -0.04269,0.10901 -0.166864,0.11324 -0.0095,0 -0.03175,0 -0.03175,0.0314 0,0.018 0.01129,0.025 0.02223,0.025 0.05221,0 0.112889,-0.007 0.165453,-0.007 0.03845,0 0.128059,0.007 0.166511,0.007 0.01799,0 0.03175,-0.007 0.03175,-0.0317 0,-0.0247 -0.01799,-0.0247 -0.03563,-0.0247 -0.09948,-0.004 -0.09948,-0.0455 -0.09948,-0.0677 0,-0.007 0,-0.0138 0.0042,-0.0385 l 0.205316,-0.8061 0.458964,0.9398 c 0.01094,0.0289 0.01799,0.0289 0.03422,0.0289 0.02505,0 0.02505,-0.004 0.03316,-0.0317 z" />
    <path
       inkscape:connector-curvature="0"
       id="path16689"
       style="fill:#000000;fill-opacity:1;fill-rule:nonzero;stroke:none;stroke-width:0.35277778"
       d="m -70.940783,148.32365 c 0,-0.036 -0.02999,-0.0691 -0.06738,-0.0691 -0.03845,0 -0.06879,0.0332 -0.06879,0.0691 0,0.0385 0.03034,0.0688 0.06879,0.0688 0.03739,0 0.06738,-0.0303 0.06738,-0.0688 z" />
    <path
       inkscape:connector-curvature="0"
       id="path16691"
       style="fill:#000000;fill-opacity:1;fill-rule:nonzero;stroke:none;stroke-width:0.35277778"
       d="m -70.940783,148.84294 c 0,-0.037 -0.02999,-0.0688 -0.06738,-0.0688 -0.03845,0 -0.06879,0.0318 -0.06879,0.0688 0,0.0388 0.03034,0.0691 0.06879,0.0691 0.03739,0 0.06738,-0.0303 0.06738,-0.0691 z" />
    <path
       inkscape:connector-curvature="0"
       id="path16693"
       style="fill:#000000;fill-opacity:1;fill-rule:nonzero;stroke:none;stroke-width:0.35277778"
       d="m -70.940783,149.35976 c 0,-0.0356 -0.02999,-0.0688 -0.06738,-0.0688 -0.03845,0 -0.06879,0.0332 -0.06879,0.0688 0,0.0388 0.03034,0.0691 0.06879,0.0691 0.03739,0 0.06738,-0.0303 0.06738,-0.0691 z" />
    <path
       d="m -72.618851,156.0887 h 5.554838 l -1.983289,1.63444 h -5.554838 z"
       style="fill:#6687a1;fill-opacity:1;fill-rule:nonzero;stroke:#000000;stroke-width:0.00587175;stroke-linecap:butt;stroke-linejoin:miter;stroke-miterlimit:4;stroke-dasharray:none;stroke-opacity:1"
       id="path16697"
       inkscape:connector-curvature="0" />
    <path
       d="m -72.661633,150.4883 h 5.607403 v 5.6074 h -5.607403 z"
       style="fill:#6687a1;fill-opacity:1;fill-rule:nonzero;stroke:#000000;stroke-width:0.01092659;stroke-linecap:butt;stroke-linejoin:miter;stroke-miterlimit:4;stroke-dasharray:none;stroke-opacity:1"
       id="path16701"
       inkscape:connector-curvature="0" />
    <path
       d="m -74.654475,152.11601 h 5.607403 v 5.6074 h -5.607403 z"
       style="fill:#488fbf;fill-opacity:1;fill-rule:nonzero;stroke:#000000;stroke-width:0.01092659;stroke-linecap:butt;stroke-linejoin:miter;stroke-miterlimit:4;stroke-dasharray:none;stroke-opacity:1"
       id="path16705"
       inkscape:connector-curvature="0" />
    <path
       inkscape:connector-curvature="0"
       id="path16707"
       style="fill:#ffffff;fill-opacity:1;fill-rule:nonzero;stroke:none;stroke-width:0.35277778"
       d="m -72.661633,156.0957 h 2.330097 v 0.74013 h -2.330097 z" />
    <path
       inkscape:connector-curvature="0"
       id="path16709"
       style="fill:#ffffff;fill-opacity:1;fill-rule:nonzero;stroke:none;stroke-width:0.35277778"
       d="m -73.980669,153.17717 h 0.740128 v 2.33009 h -0.740128 z" />
    <path
       d="m -72.618983,150.48157 h 5.554839 l -1.983289,1.63444 h -5.554839 z"
       style="fill:#6687a1;fill-opacity:1;fill-rule:nonzero;stroke:#000000;stroke-width:0.00587175;stroke-linecap:butt;stroke-linejoin:miter;stroke-miterlimit:4;stroke-dasharray:none;stroke-opacity:1"
       id="path16713"
       inkscape:connector-curvature="0" />
    <path
       d="m -83.017777,147.98463 c 0,0 0.431447,6.50275 7.12858,6.38986"
       style="fill:none;stroke:#808080;stroke-width:0.15374514;stroke-linecap:butt;stroke-linejoin:miter;stroke-miterlimit:4;stroke-dasharray:none;stroke-opacity:1"
       id="path16717"
       inkscape:connector-curvature="0" />
    <path
       d="m -77.427092,154.40078 -0.603443,0.62561 2.141195,-0.65193 -2.161959,-0.5775 z"
       style="fill:#808080;fill-opacity:1;fill-rule:evenodd;stroke:#808080;stroke-width:0.16399485;stroke-linecap:butt;stroke-linejoin:miter;stroke-miterlimit:4;stroke-dasharray:none;stroke-opacity:1"
       id="path16721"
       inkscape:connector-curvature="0" />
    <path
       inkscape:connector-curvature="0"
       id="path16723"
       style="fill:#000000;fill-opacity:1;fill-rule:nonzero;stroke:none;stroke-width:0.35277778"
       d="m -80.113005,150.19478 h 0.365478 c 0.287866,0 0.398286,-0.16792 0.398286,-0.19543 0,-0.0109 -0.0071,-0.0138 -0.02081,-0.0138 -0.02328,0 -0.07867,0.0205 -0.133703,0.0579 -0.01799,0.0138 -0.02469,0.0138 -0.06597,0.0138 h -0.959203 c -0.271639,0 -0.574675,0.23848 -0.574675,0.41628 0,0.0138 0,0.0247 0.01658,0.0247 0.05221,0 0.190148,-0.0716 0.19685,-0.12417 0,-0.037 0.0028,-0.0783 0.04833,-0.13371 0.02328,-0.0275 0.04127,-0.0455 0.137936,-0.0455 h 0.436739 c -0.03845,0.025 -0.04833,0.0554 -0.05221,0.0801 l -0.250825,0.99343 c -0.02505,0.10759 -0.07197,0.24412 -0.133703,0.38876 -0.01376,0.0247 -0.01376,0.0317 -0.01376,0.0346 0,0.0138 0.0095,0.0138 0.02046,0.0138 0.04127,0 0.150283,-0.0579 0.182033,-0.10337 0.01376,-0.0236 0.110067,-0.24659 0.158397,-0.43003 z" />
    <path
       inkscape:connector-curvature="0"
       id="path16725"
       style="fill:#000000;fill-opacity:1;fill-rule:nonzero;stroke:none;stroke-width:0.35277778"
       d="m -78.704364,151.00653 c 0.01376,-0.0593 0.04127,-0.11007 0.16122,-0.1143 0.0067,0 0.03175,0 0.03175,-0.0303 0,-0.0109 -0.0071,-0.0247 -0.02505,-0.0247 -0.04833,0 -0.106186,0.007 -0.158398,0.007 -0.03704,0 -0.122766,-0.007 -0.161219,-0.007 -0.0071,0 -0.03034,0 -0.03034,0.0342 0,0.0208 0.02081,0.0208 0.03457,0.0208 0.07161,0.004 0.0949,0.0275 0.0949,0.0663 0,0.01 0,0.0205 -0.0067,0.0342 l -0.164042,0.66992 -0.388761,-0.79798 c -0.01376,-0.0275 -0.01799,-0.0275 -0.05503,-0.0275 h -0.210961 c -0.02752,0 -0.04798,0 -0.04798,0.0342 0,0.0208 0.01764,0.0208 0.05221,0.0208 0.03034,0 0.06491,0.004 0.09666,0.0109 l -0.204258,0.8188 c -0.01376,0.0579 -0.04127,0.10583 -0.16122,0.11007 -0.0095,0 -0.03034,0 -0.03034,0.0303 0,0.018 0.0099,0.0247 0.02081,0.0247 0.05115,0 0.109009,-0.007 0.16122,-0.007 0.03739,0 0.124178,0.007 0.161219,0.007 0.01799,0 0.03175,-0.007 0.03175,-0.0317 0,-0.0233 -0.01799,-0.0233 -0.03457,-0.0233 -0.09631,-0.004 -0.09631,-0.0455 -0.09631,-0.066 0,-0.007 0,-0.0138 0.0028,-0.0374 l 0.199672,-0.78422 0.448028,0.9151 c 0.0095,0.0275 0.01623,0.0275 0.03422,0.0275 0.02364,0 0.02364,-0.004 0.03034,-0.0317 z" />
    <path
       inkscape:connector-curvature="0"
       id="path16727"
       style="fill:#000000;fill-opacity:1;fill-rule:nonzero;stroke:none;stroke-width:0.35277778"
       d="m -77.289372,151.53851 c 0.02505,0 0.06209,0 0.06209,-0.0332 0,-0.0413 -0.03704,-0.0413 -0.06209,-0.0413 h -0.914753 c -0.02364,0 -0.06209,0 -0.06209,0.0374 0,0.037 0.03422,0.037 0.06209,0.037 z" />
    <path
       inkscape:connector-curvature="0"
       id="path16729"
       style="fill:#000000;fill-opacity:1;fill-rule:nonzero;stroke:none;stroke-width:0.35277778"
       d="m -76.546422,150.91022 c 0,-0.0413 0,-0.0413 -0.04551,-0.0413 -0.09913,0.0963 -0.237067,0.0963 -0.299156,0.0963 v 0.055 c 0.03457,0 0.137936,0 0.220486,-0.0413 v 0.77999 c 0,0.0522 0,0.073 -0.151341,0.073 h -0.05786 v 0.055 c 0.02611,0 0.216253,-0.007 0.271286,-0.007 0.04833,0 0.239889,0.007 0.274109,0.007 v -0.055 h -0.05786 c -0.154164,0 -0.154164,-0.0208 -0.154164,-0.073 z" />
    <path
       inkscape:connector-curvature="0"
       id="path16731"
       style="fill:#000000;fill-opacity:1;fill-rule:nonzero;stroke:none;stroke-width:0.35277778"
       d="m -63.814672,144.27623 c 0.0067,-0.007 0.04127,-0.0413 0.05503,-0.0413 0.01376,0 0.180622,0.19438 0.214842,0.2286 0.124178,0.13934 0.256469,0.27728 0.38735,0.41627 0.01376,0.0208 0.02893,0.0208 0.03598,0.0208 0.03422,0 0.04798,-0.0346 0.04798,-0.0483 0,-0.0208 -0.138995,-0.26317 -0.263172,-0.48507 l -0.173567,-0.31962 0.769056,-0.35278 c 0.06174,-0.0346 0.06174,-0.0483 0.06174,-0.0705 0,-0.0205 -0.01376,-0.0413 -0.04798,-0.0413 0,0 -0.215195,0.0346 -0.879122,0.17357 l -0.104775,-0.8322 c -0.0071,-0.0825 -0.01376,-0.0963 -0.04833,-0.0963 -0.04127,0 -0.05503,0.0205 -0.06209,0.0963 l -0.09772,0.8322 -0.817386,-0.16651 c -0.02046,-0.007 -0.05644,-0.007 -0.06315,-0.007 -0.03457,0 -0.04833,0.0208 -0.04833,0.0413 0,0.036 0.02081,0.043 0.0702,0.0705 l 0.769055,0.35278 -0.416277,0.73448 c -0.02046,0.0494 -0.02752,0.0565 -0.02752,0.0702 0,0.0138 0.01376,0.0483 0.04833,0.0483 0.0067,0 0.02046,0 0.06879,-0.0483 z" />
    <path
       inkscape:connector-curvature="0"
       id="path16733"
       style="fill:#000000;fill-opacity:1;fill-rule:nonzero;stroke:none;stroke-width:0.35277778"
       d="m -33.067973,134.81896 c 0.01094,-0.12135 0.01517,-0.29774 0.01517,-0.38311 0,-0.33761 -0.01517,-1.50072 -0.688975,-1.50072 -0.221898,0 -0.4191,0.19544 -0.4191,0.24659 0,0.0247 0.02505,0.0247 0.03598,0.0247 0.0194,0 0.115711,-0.0152 0.185914,-0.11007 0.286808,0.004 0.468489,0.21061 0.563739,0.61877 0.06068,0.25753 0.08678,0.53869 0.08678,0.83644 0,0.19156 -0.01517,0.41345 -0.02081,0.45332 0,0.0247 0,0.0303 -0.0053,0.0356 -0.0099,0.004 -0.332316,0.27728 -0.487891,0.27728 -0.02611,0 -0.28822,0 -0.348545,-0.2674 -0.0042,-0.0208 -0.0099,-0.0402 -0.02505,-0.0402 -0.03986,0 -0.100541,0.10478 -0.100541,0.18627 0,0.13652 0.121355,0.36794 0.392641,0.36794 0.246945,0 0.776111,-0.47413 1.058333,-0.79657 0.639587,-0.74013 0.749653,-1.29399 0.749653,-1.46085 0,-0.27129 -0.180269,-0.37183 -0.301625,-0.37183 -0.09525,0 -0.121355,0.16122 -0.121355,0.19544 0,0.0455 0.01094,0.0512 0.06068,0.0554 0.187325,0.0205 0.237067,0.17215 0.237067,0.26705 0,0.10089 -0.151694,0.66992 -0.866775,1.36595 z" />
    <path
       d="m -57.305144,146.82299 h 10.489847 l -3.745517,3.0867 h -10.488083 z"
       style="fill:#53af53;fill-opacity:1;fill-rule:nonzero;stroke:#000000;stroke-width:0.01108673;stroke-linecap:butt;stroke-linejoin:miter;stroke-miterlimit:4;stroke-dasharray:none;stroke-opacity:1"
       id="path16737"
       inkscape:connector-curvature="0" />
    <path
       d="m -57.383533,136.25054 h 10.586155 v 10.58615 h -10.586155 z"
       style="fill:#53af53;fill-opacity:1;fill-rule:nonzero;stroke:#000000;stroke-width:0.02063104;stroke-linecap:butt;stroke-linejoin:miter;stroke-miterlimit:4;stroke-dasharray:none;stroke-opacity:1"
       id="path16741"
       inkscape:connector-curvature="0" />
    <path
       d="m -61.146967,139.32217 h 10.586156 v 10.58757 h -10.586156 z"
       style="fill:#a9e29e;fill-opacity:1;fill-rule:nonzero;stroke:#000000;stroke-width:0.02063104;stroke-linecap:butt;stroke-linejoin:miter;stroke-miterlimit:4;stroke-dasharray:none;stroke-opacity:1"
       id="path16745"
       inkscape:connector-curvature="0" />
    <path
       d="m -57.30471,136.23671 h 10.489494 l -3.745567,3.08558 h -10.488436 z"
       style="fill:#53af53;fill-opacity:1;fill-rule:nonzero;stroke:#000000;stroke-width:0.01108673;stroke-linecap:butt;stroke-linejoin:miter;stroke-miterlimit:4;stroke-dasharray:none;stroke-opacity:1"
       id="path16749"
       inkscape:connector-curvature="0" />
    <path
       d="m -75.434466,128.77482 h 8.990188 v 38.11941 h -8.990188 z"
       style="fill:none;stroke:#000000;stroke-width:0.07308709;stroke-linecap:butt;stroke-linejoin:miter;stroke-miterlimit:4;stroke-dasharray:0.07308709, 0.07308709;stroke-dashoffset:0;stroke-opacity:1"
       id="path16753"
       inkscape:connector-curvature="0" />
    <path
       inkscape:connector-curvature="0"
       id="path16755"
       style="fill:#000000;fill-opacity:1;fill-rule:nonzero;stroke:none;stroke-width:0.35277778"
       d="m -71.52075,127.65299 c 0.03563,-0.23707 0.0635,-0.47554 0.0635,-0.7179 0,-0.084 0,-0.40393 -0.09948,-0.60925 -0.111478,-0.2286 -0.264583,-0.26035 -0.35807,-0.26035 -0.09948,0 -0.197202,0.0811 -0.197202,0.12136 0,0.0219 0.01235,0.0219 0.04974,0.0219 0.125236,0.0138 0.246592,0.0716 0.322439,0.3048 0.06209,0.18027 0.07161,0.39546 0.07161,0.5207 0,0.43003 -0.103364,0.92886 -0.121355,0.99624 -0.0042,0.036 -0.0081,0.0483 -0.0081,0.0759 0,0.008 0,0.0441 0.01799,0.0441 0.01764,0 0.01764,-0.004 0.06174,-0.0579 0.318559,-0.37606 0.636764,-0.81174 0.951089,-1.35467 0.107245,-0.19685 0.184503,-0.34995 0.19685,-0.36794 0.08537,0.26458 0.180623,0.66004 0.238478,1.12606 0.01376,0.15276 0.03175,0.32773 0.03175,0.48084 0,0.008 0.0042,0.14323 0.0042,0.15169 0,0.01 0.0081,0.0219 0.01764,0.0219 0.01376,0 0.01799,-0.004 0.06209,-0.0536 0.3556,-0.39828 0.970139,-1.23331 0.970139,-1.72684 0,-0.2286 -0.121355,-0.30445 -0.210961,-0.30445 -0.07691,0 -0.121003,0.17498 -0.121003,0.21907 0,0.0413 0.01235,0.0413 0.03563,0.0455 0.04022,0.004 0.169686,0.0275 0.169686,0.21484 0,0.32809 -0.698853,1.20721 -0.716492,1.20721 -0.0056,0 -0.0056,-0.004 -0.0099,-0.0674 -0.03175,-0.61454 -0.19685,-1.27353 -0.313972,-1.5875 -0.0085,-0.018 -0.0085,-0.0318 -0.04022,-0.0318 -0.05362,0 -0.174978,0.0716 -0.174978,0.12524 0,0.01 0.0099,0.036 0.01799,0.0497 -0.174977,0.33231 -0.435327,0.81174 -0.910872,1.41252 z" />
    <path
       inkscape:connector-curvature="0"
       id="path16757"
       style="fill:#000000;fill-opacity:1;fill-rule:nonzero;stroke:none;stroke-width:0.35277778"
       d="m -52.272489,133.28791 c -0.03422,-0.27305 -0.06879,-0.4893 -0.330553,-0.4893 -0.348544,0 -0.594078,0.25647 -0.594078,0.3556 0,0.0289 0.02364,0.0289 0.04163,0.0289 0.03986,0 0.203906,-0.0469 0.272697,-0.17497 l 0.0067,-0.006 c 0.202847,0 0.255058,0.11712 0.291042,0.50024 l 0.05221,0.54716 c -0.135114,0.0702 -0.635353,0.37218 -0.902406,0.55809 -0.424744,0.30163 -0.430036,0.41346 -0.430036,0.51823 0,0.12665 0.06315,0.2092 0.180622,0.2092 0.110067,0 0.278342,-0.12241 0.278342,-0.18027 0,-0.018 -0.01129,-0.018 -0.02222,-0.0236 -0.03563,-0.005 -0.122767,-0.018 -0.122767,-0.16263 0,-0.0991 0,-0.14605 0.395817,-0.40782 0.227189,-0.15028 0.442031,-0.2674 0.633589,-0.38876 0,0.006 0.05256,0.56374 0.0635,0.6216 0.02893,0.29633 0.05256,0.54151 0.326672,0.54151 0.354189,0 0.597959,-0.25082 0.597959,-0.35525 0,-0.0289 -0.02187,-0.0289 -0.03986,-0.0289 -0.04127,0 -0.203906,0.0522 -0.27305,0.17497 -0.01235,0.005 -0.02999,0.005 -0.03563,0.005 -0.214842,0 -0.238478,-0.23284 -0.267405,-0.54716 -0.01094,-0.11571 -0.02328,-0.21484 -0.05786,-0.59937 1.157464,-0.6918 1.157464,-0.81986 1.157464,-0.97684 0,-0.127 -0.0702,-0.20955 -0.174978,-0.20955 -0.115711,0 -0.290689,0.12805 -0.290689,0.18062 0,0.0233 0.02328,0.0233 0.02893,0.0233 0.02893,0.006 0.117122,0.0233 0.117122,0.16263 0,0.0938 -0.01235,0.1517 -0.326672,0.36654 -0.110067,0.0759 -0.267406,0.16968 -0.523522,0.32667 z" />
    <path
       inkscape:connector-curvature="0"
       id="path16759"
       style="fill:#000000;fill-opacity:1;fill-rule:nonzero;stroke:none;stroke-width:0.35277778"
       d="m -43.757492,143.55974 c 0.05115,0 0.11183,0 0.11183,-0.0607 0,-0.0663 -0.06068,-0.0663 -0.106186,-0.0663 h -1.937455 c -0.04692,0 -0.107597,0 -0.107597,0.0663 0,0.0607 0.06068,0.0607 0.107597,0.0607 z m 0.0056,0.62971 c 0.04551,0 0.106186,0 0.106186,-0.066 0,-0.0607 -0.06068,-0.0607 -0.11183,-0.0607 h -1.931811 c -0.04692,0 -0.107597,0 -0.107597,0.0607 0,0.066 0.06068,0.066 0.107597,0.066 z" />
    <path
       d="m -38.662687,146.7402 h 10.488083 l -3.743884,3.08536 h -10.488435 z"
       style="fill:#da4f50;fill-opacity:1;fill-rule:nonzero;stroke:#000000;stroke-width:0.01108673;stroke-linecap:butt;stroke-linejoin:miter;stroke-miterlimit:4;stroke-dasharray:none;stroke-opacity:1"
       id="path16763"
       inkscape:connector-curvature="0" />
    <path
       d="m -38.742756,136.16658 h 10.587566 v 10.58756 h -10.587566 z"
       style="fill:#da4f50;fill-opacity:1;fill-rule:nonzero;stroke:#000000;stroke-width:0.02063104;stroke-linecap:butt;stroke-linejoin:miter;stroke-miterlimit:4;stroke-dasharray:none;stroke-opacity:1"
       id="path16767"
       inkscape:connector-curvature="0" />
    <path
       d="m -42.506189,139.23962 h 10.587566 v 10.58616 h -10.587566 z"
       style="fill:#fba9a7;fill-opacity:1;fill-rule:nonzero;stroke:#000000;stroke-width:0.02063104;stroke-linecap:butt;stroke-linejoin:miter;stroke-miterlimit:4;stroke-dasharray:none;stroke-opacity:1"
       id="path16771"
       inkscape:connector-curvature="0" />
    <path
       d="m -38.663008,136.1528 10.488436,10e-6 -3.744106,3.0867 -10.488083,-1e-5 z"
       style="fill:#da4f50;fill-opacity:1;fill-rule:nonzero;stroke:#000000;stroke-width:0.01108673;stroke-linecap:butt;stroke-linejoin:miter;stroke-miterlimit:4;stroke-dasharray:none;stroke-opacity:1"
       id="path16775"
       inkscape:connector-curvature="0" />
    <path
       d="m -20.8931,145.36086 h 5.55625 l -1.983017,1.63421 h -5.556249 z"
       style="fill:#6687a1;fill-opacity:1;fill-rule:nonzero;stroke:#000000;stroke-width:0.00587175;stroke-linecap:butt;stroke-linejoin:miter;stroke-miterlimit:4;stroke-dasharray:none;stroke-opacity:1"
       id="path16779"
       inkscape:connector-curvature="0" />
    <path
       d="m -20.934534,139.76032 h 5.607402 v 5.60741 h -5.607402 z"
       style="fill:#6687a1;fill-opacity:1;fill-rule:nonzero;stroke:#000000;stroke-width:0.01092659;stroke-linecap:butt;stroke-linejoin:miter;stroke-miterlimit:4;stroke-dasharray:none;stroke-opacity:1"
       id="path16783"
       inkscape:connector-curvature="0" />
    <path
       d="m -22.927023,141.38804 h 5.607403 v 5.6074 h -5.607403 z"
       style="fill:#488fbf;fill-opacity:1;fill-rule:nonzero;stroke:#000000;stroke-width:0.01092659;stroke-linecap:butt;stroke-linejoin:miter;stroke-miterlimit:4;stroke-dasharray:none;stroke-opacity:1"
       id="path16787"
       inkscape:connector-curvature="0" />
    <path
       inkscape:connector-curvature="0"
       id="path16789"
       style="fill:#ffffff;fill-opacity:1;fill-rule:nonzero;stroke:none;stroke-width:0.35277778"
       d="m -20.463223,142.04809 h 2.330097 v 0.74154 h -2.330097 z" />
    <path
       inkscape:connector-curvature="0"
       id="path16791"
       style="fill:#ffffff;fill-opacity:1;fill-rule:nonzero;stroke:none;stroke-width:0.35277778"
       d="m -21.552954,143.79257 h 0.741539 v 2.3301 h -0.741539 z" />
    <path
       d="m -20.892959,139.75351 h 5.55625 l -1.983289,1.63444 h -5.55625 z"
       style="fill:#6687a1;fill-opacity:1;fill-rule:nonzero;stroke:#000000;stroke-width:0.00587175;stroke-linecap:butt;stroke-linejoin:miter;stroke-miterlimit:4;stroke-dasharray:none;stroke-opacity:1"
       id="path16795"
       inkscape:connector-curvature="0" />
    <path
       d="m -12.934946,131.95935 h 6.9631281 v 20.94618 h -6.9631281 z"
       style="fill:none;stroke:#000000;stroke-width:0.04767792;stroke-linecap:butt;stroke-linejoin:miter;stroke-miterlimit:4;stroke-dasharray:0.04767792, 0.04767792;stroke-dashoffset:0;stroke-opacity:1"
       id="path16799"
       inkscape:connector-curvature="0" />
    <path
       d="m -8.4907469,134.46463 h 1.6344194 l -3.4697965,3.61728 h -1.63442 z"
       style="fill:#6687a1;fill-opacity:1;fill-rule:nonzero;stroke:#000000;stroke-width:0.00473955;stroke-linecap:butt;stroke-linejoin:miter;stroke-miterlimit:4;stroke-dasharray:none;stroke-opacity:1"
       id="path16803"
       inkscape:connector-curvature="0" />
    <path
       d="m -11.961984,136.4421 h 1.630186 v 1.63159 h -1.630186 z"
       style="fill:#488fbf;fill-opacity:1;fill-rule:nonzero;stroke:#000000;stroke-width:0.00317849;stroke-linecap:butt;stroke-linejoin:miter;stroke-miterlimit:4;stroke-dasharray:none;stroke-opacity:1"
       id="path16807"
       inkscape:connector-curvature="0" />
    <path
       d="m -8.4892401,132.83459 h 1.6301861 v 1.6316 h -1.6301861 z"
       style="fill:#6687a1;fill-opacity:1;fill-rule:nonzero;stroke:#000000;stroke-width:0.00317849;stroke-linecap:butt;stroke-linejoin:miter;stroke-miterlimit:4;stroke-dasharray:none;stroke-opacity:1"
       id="path16811"
       inkscape:connector-curvature="0" />
    <path
       d="m -8.5073158,132.83028 h 1.6344194 l -3.4683856,3.61727 h -1.635831 z"
       style="fill:#6687a1;fill-opacity:1;fill-rule:nonzero;stroke:#000000;stroke-width:0.00473955;stroke-linecap:butt;stroke-linejoin:miter;stroke-miterlimit:4;stroke-dasharray:none;stroke-opacity:1"
       id="path16815"
       inkscape:connector-curvature="0" />
    <path
       d="m -8.4935052,138.18681 h 1.6358305 l -3.4699593,3.61854 h -1.63442 z"
       style="fill:#6687a1;fill-opacity:1;fill-rule:nonzero;stroke:#000000;stroke-width:0.00473955;stroke-linecap:butt;stroke-linejoin:miter;stroke-miterlimit:4;stroke-dasharray:none;stroke-opacity:1"
       id="path16819"
       inkscape:connector-curvature="0" />
    <path
       d="m -11.964807,140.16566 h 1.631598 v 1.63019 h -1.631598 z"
       style="fill:#488fbf;fill-opacity:1;fill-rule:nonzero;stroke:#000000;stroke-width:0.00317849;stroke-linecap:butt;stroke-linejoin:miter;stroke-miterlimit:4;stroke-dasharray:none;stroke-opacity:1"
       id="path16823"
       inkscape:connector-curvature="0" />
    <path
       d="m -8.4920623,136.55781 h 1.6315972 v 1.63018 h -1.6315972 z"
       style="fill:#6687a1;fill-opacity:1;fill-rule:nonzero;stroke:#000000;stroke-width:0.00317849;stroke-linecap:butt;stroke-linejoin:miter;stroke-miterlimit:4;stroke-dasharray:none;stroke-opacity:1"
       id="path16827"
       inkscape:connector-curvature="0" />
    <path
       d="m -8.508663,136.55245 h 1.6344194 l -3.4699594,3.61855 h -1.634067 z"
       style="fill:#6687a1;fill-opacity:1;fill-rule:nonzero;stroke:#000000;stroke-width:0.00473955;stroke-linecap:butt;stroke-linejoin:miter;stroke-miterlimit:4;stroke-dasharray:none;stroke-opacity:1"
       id="path16831"
       inkscape:connector-curvature="0" />
    <path
       d="m -8.4342654,141.71853 h 1.6344194 l -3.469851,3.6188 h -1.634419 z"
       style="fill:#6687a1;fill-opacity:1;fill-rule:nonzero;stroke:#000000;stroke-width:0.00473955;stroke-linecap:butt;stroke-linejoin:miter;stroke-miterlimit:4;stroke-dasharray:none;stroke-opacity:1"
       id="path16835"
       inkscape:connector-curvature="0" />
    <path
       d="m -11.906951,143.69732 h 1.631597 v 1.63019 h -1.631597 z"
       style="fill:#ffffff;fill-opacity:1;fill-rule:nonzero;stroke:#000000;stroke-width:0.00317849;stroke-linecap:butt;stroke-linejoin:miter;stroke-miterlimit:4;stroke-dasharray:none;stroke-opacity:1"
       id="path16839"
       inkscape:connector-curvature="0" />
    <path
       d="m -8.4342067,140.08982 h 1.6315972 V 141.72 h -1.6315972 z"
       style="fill:#6687a1;fill-opacity:1;fill-rule:nonzero;stroke:#000000;stroke-width:0.00317849;stroke-linecap:butt;stroke-linejoin:miter;stroke-miterlimit:4;stroke-dasharray:none;stroke-opacity:1"
       id="path16843"
       inkscape:connector-curvature="0" />
    <path
       d="m -8.4504816,140.08418 h 1.6340666 l -3.469851,3.6188 h -1.634419 z"
       style="fill:#6687a1;fill-opacity:1;fill-rule:nonzero;stroke:#000000;stroke-width:0.00473955;stroke-linecap:butt;stroke-linejoin:miter;stroke-miterlimit:4;stroke-dasharray:none;stroke-opacity:1"
       id="path16847"
       inkscape:connector-curvature="0" />
    <path
       d="m -8.4079325,148.55104 h 1.6354778 l -3.4697973,3.61728 h -1.63583 z"
       style="fill:#6687a1;fill-opacity:1;fill-rule:nonzero;stroke:#000000;stroke-width:0.00473955;stroke-linecap:butt;stroke-linejoin:miter;stroke-miterlimit:4;stroke-dasharray:none;stroke-opacity:1"
       id="path16851"
       inkscape:connector-curvature="0" />
    <path
       d="m -11.879434,150.52992 h 1.631597 v 1.63019 h -1.631597 z"
       style="fill:#488fbf;fill-opacity:1;fill-rule:nonzero;stroke:#000000;stroke-width:0.00317849;stroke-linecap:butt;stroke-linejoin:miter;stroke-miterlimit:4;stroke-dasharray:none;stroke-opacity:1"
       id="path16855"
       inkscape:connector-curvature="0" />
    <path
       d="m -8.4066901,146.92206 h 1.6301861 v 1.63019 h -1.6301861 z"
       style="fill:#6687a1;fill-opacity:1;fill-rule:nonzero;stroke:#000000;stroke-width:0.00317849;stroke-linecap:butt;stroke-linejoin:miter;stroke-miterlimit:4;stroke-dasharray:none;stroke-opacity:1"
       id="path16859"
       inkscape:connector-curvature="0" />
    <path
       d="m -8.4245014,146.91669 h 1.6354777 l -3.4696063,3.61855 h -1.635831 z"
       style="fill:#6687a1;fill-opacity:1;fill-rule:nonzero;stroke:#000000;stroke-width:0.00473955;stroke-linecap:butt;stroke-linejoin:miter;stroke-miterlimit:4;stroke-dasharray:none;stroke-opacity:1"
       id="path16863"
       inkscape:connector-curvature="0" />
    <path
       inkscape:connector-curvature="0"
       id="path16865"
       style="fill:#000000;fill-opacity:1;fill-rule:nonzero;stroke:none;stroke-width:0.35277778"
       d="m -10.444687,146.12831 c 0,-0.0621 -0.05115,-0.11571 -0.112889,-0.11571 -0.06491,0 -0.117475,0.0536 -0.117475,0.11571 0,0.0663 0.05256,0.11713 0.117475,0.11713 0.06174,0 0.112889,-0.0508 0.112889,-0.11713 z" />
    <path
       inkscape:connector-curvature="0"
       id="path16867"
       style="fill:#000000;fill-opacity:1;fill-rule:nonzero;stroke:none;stroke-width:0.35277778"
       d="m -10.444687,147.00461 c 0,-0.0617 -0.05115,-0.11712 -0.112889,-0.11712 -0.06491,0 -0.117475,0.0554 -0.117475,0.11712 0,0.0649 0.05256,0.11607 0.117475,0.11607 0.06174,0 0.112889,-0.0512 0.112889,-0.11607 z" />
    <path
       inkscape:connector-curvature="0"
       id="path16869"
       style="fill:#000000;fill-opacity:1;fill-rule:nonzero;stroke:none;stroke-width:0.35277778"
       d="m -10.444687,147.87845 c 0,-0.0621 -0.05115,-0.11713 -0.112889,-0.11713 -0.06491,0 -0.117475,0.055 -0.117475,0.11713 0,0.0649 0.05256,0.11571 0.117475,0.11571 0.06174,0 0.112889,-0.0508 0.112889,-0.11571 z" />
    <path
       inkscape:connector-curvature="0"
       id="path16871"
       style="fill:#000000;fill-opacity:1;fill-rule:nonzero;stroke:none;stroke-width:0.35277778"
       d="m -3.1562985,143.36818 c 0.00706,-0.007 0.041275,-0.0413 0.055033,-0.0413 0.013758,0 0.1806222,0.19402 0.2151945,0.2286 0.1252361,0.13934 0.2561166,0.27693 0.3884083,0.41627 0.013758,0.0205 0.027517,0.0205 0.034572,0.0205 0.034219,0 0.048331,-0.0342 0.048331,-0.048 0,-0.0208 -0.1379361,-0.26317 -0.263525,-0.48507 l -0.1735667,-0.31997 0.7704667,-0.35278 c 0.062089,-0.0342 0.062089,-0.048 0.062089,-0.0688 0,-0.0219 -0.013758,-0.0427 -0.048331,-0.0427 0,0 -0.2148417,0.036 -0.8805333,0.17357 l -0.1033639,-0.83079 c -0.00706,-0.0843 -0.015169,-0.0981 -0.049742,-0.0981 -0.041275,0 -0.055033,0.0208 -0.062089,0.0981 l -0.096308,0.83079 -0.8184444,-0.16651 c -0.020814,-0.007 -0.055386,-0.007 -0.062089,-0.007 -0.034572,0 -0.048331,0.0208 -0.048331,0.0427 0,0.0346 0.020814,0.0413 0.069145,0.0688 l 0.7687027,0.35278 -0.4148666,0.73448 c -0.021872,0.0497 -0.028928,0.0568 -0.028928,0.0706 0,0.0138 0.013758,0.048 0.049742,0.048 0.00706,0 0.020814,0 0.068792,-0.048 z" />
    <path
       d="M 2.9912406,145.9148 H 13.480735 l -3.7455172,3.0867 H -0.75286526 Z"
       style="fill:#53af53;fill-opacity:1;fill-rule:nonzero;stroke:#000000;stroke-width:0.01108673;stroke-linecap:butt;stroke-linejoin:miter;stroke-miterlimit:4;stroke-dasharray:none;stroke-opacity:1"
       id="path16875"
       inkscape:connector-curvature="0" />
    <path
       d="M 2.9111264,135.34249 H 13.498693 v 10.58615 H 2.9111264 Z"
       style="fill:#53af53;fill-opacity:1;fill-rule:nonzero;stroke:#000000;stroke-width:0.02063104;stroke-linecap:butt;stroke-linejoin:miter;stroke-miterlimit:4;stroke-dasharray:none;stroke-opacity:1"
       id="path16879"
       inkscape:connector-curvature="0" />
    <path
       d="M -0.85089578,138.41412 H 9.7352595 v 10.58757 H -0.85089578 Z"
       style="fill:#a9e29e;fill-opacity:1;fill-rule:nonzero;stroke:#000000;stroke-width:0.02063104;stroke-linecap:butt;stroke-linejoin:miter;stroke-miterlimit:4;stroke-dasharray:none;stroke-opacity:1"
       id="path16883"
       inkscape:connector-curvature="0" />
    <path
       d="M 2.9910498,135.32875 H 13.480544 L 9.7352494,138.4141 H -0.75318647 Z"
       style="fill:#53af53;fill-opacity:1;fill-rule:nonzero;stroke:#000000;stroke-width:0.01108673;stroke-linecap:butt;stroke-linejoin:miter;stroke-miterlimit:4;stroke-dasharray:none;stroke-opacity:1"
       id="path16887"
       inkscape:connector-curvature="0" />
    <path
       inkscape:connector-curvature="0"
       id="path16889"
       style="fill:#000000;fill-opacity:1;fill-rule:nonzero;stroke:none;stroke-width:0.35277778"
       d="m 7.9604346,132.46241 c -0.034572,-0.26176 -0.067733,-0.46849 -0.3185583,-0.46849 -0.3347862,0 -0.5690306,0.24518 -0.5690306,0.34043 0,0.0275 0.022225,0.0275 0.038453,0.0275 0.038805,0 0.1957916,-0.0441 0.2621139,-0.16687 l 0.00529,-0.006 c 0.1957917,0 0.2465917,0.11183 0.2797528,0.47978 l 0.049742,0.52493 c -0.1280584,0.0663 -0.6078361,0.35701 -0.8639528,0.53481 -0.4081639,0.29069 -0.4134555,0.39688 -0.4134555,0.49742 0,0.12241 0.062089,0.20108 0.1735666,0.20108 0.104775,0 0.2674056,-0.11712 0.2674056,-0.17357 0,-0.0166 -0.010936,-0.0166 -0.022225,-0.0222 -0.034219,-0.005 -0.1171222,-0.0162 -0.1171222,-0.15558 0,-0.0949 0,-0.1404 0.3788833,-0.39123 0.2180166,-0.14463 0.4247444,-0.25647 0.6078361,-0.37359 0,0.006 0.051153,0.54152 0.062089,0.59655 0.027517,0.2854 0.049742,0.51964 0.3129139,0.51964 0.3400777,0 0.5746749,-0.23989 0.5746749,-0.34043 0,-0.0289 -0.022225,-0.0289 -0.040217,-0.0289 -0.038453,0 -0.1943806,0.0512 -0.2617611,0.16828 -0.010936,0.005 -0.027517,0.005 -0.033161,0.005 -0.2067278,0 -0.2286,-0.22296 -0.2561167,-0.52493 -0.012347,-0.11148 -0.023636,-0.20673 -0.056444,-0.57468 1.1105444,-0.66428 1.1105444,-0.78669 1.1105444,-0.93698 0,-0.12276 -0.067381,-0.20108 -0.168275,-0.20108 -0.1114778,0 -0.2783417,0.12241 -0.2783417,0.17357 0,0.0219 0.022225,0.0219 0.027869,0.0219 0.027517,0.006 0.1114777,0.0222 0.1114777,0.15593 0,0.0896 -0.010936,0.14605 -0.3129138,0.35136 -0.1061862,0.073 -0.2561167,0.16263 -0.50165,0.31292 z" />
    <path
       inkscape:connector-curvature="0"
       id="path16891"
       style="fill:#000000;fill-opacity:1;fill-rule:nonzero;stroke:none;stroke-width:0.35277778"
       d="m 16.578443,142.36065 c 0.05115,0 0.11183,0 0.11183,-0.0603 0,-0.0663 -0.06068,-0.0663 -0.106186,-0.0663 h -1.938866 c -0.04551,0 -0.106187,0 -0.106187,0.0663 0,0.0603 0.06068,0.0603 0.106187,0.0603 z m 0.0056,0.63006 c 0.04551,0 0.106186,0 0.106186,-0.0663 0,-0.0607 -0.06068,-0.0607 -0.11183,-0.0607 h -1.933222 c -0.04551,0 -0.106187,0 -0.106187,0.0607 0,0.0663 0.06068,0.0663 0.106187,0.0663 z" />
    <path
       d="m 21.673258,145.54125 h 10.488083 l -3.744156,3.08558 H 17.927691 Z"
       style="fill:#8a8a8a;fill-opacity:1;fill-rule:nonzero;stroke:#000000;stroke-width:0.01108673;stroke-linecap:butt;stroke-linejoin:miter;stroke-miterlimit:4;stroke-dasharray:none;stroke-opacity:1"
       id="path16895"
       inkscape:connector-curvature="0" />
    <path
       d="m 21.593179,134.96748 h 10.587566 v 10.58757 H 21.593179 Z"
       style="fill:#8a8a8a;fill-opacity:1;fill-rule:nonzero;stroke:#000000;stroke-width:0.02063104;stroke-linecap:butt;stroke-linejoin:miter;stroke-miterlimit:4;stroke-dasharray:none;stroke-opacity:1"
       id="path16899"
       inkscape:connector-curvature="0" />
    <path
       d="m 17.829745,138.04053 h 10.587567 v 10.58616 H 17.829745 Z"
       style="fill:#b3b3b3;fill-opacity:1;fill-rule:nonzero;stroke:#000000;stroke-width:0.02063104;stroke-linecap:butt;stroke-linejoin:miter;stroke-miterlimit:4;stroke-dasharray:none;stroke-opacity:1"
       id="path16903"
       inkscape:connector-curvature="0" />
    <path
       d="m 21.673289,134.95385 h 10.488084 l -3.744106,3.0867 H 17.927772 Z"
       style="fill:#8a8a8a;fill-opacity:1;fill-rule:nonzero;stroke:#000000;stroke-width:0.01108673;stroke-linecap:butt;stroke-linejoin:miter;stroke-miterlimit:4;stroke-dasharray:none;stroke-opacity:1"
       id="path16907"
       inkscape:connector-curvature="0" />
    <path
       inkscape:connector-curvature="0"
       id="path16909"
       style="fill:#000000;fill-opacity:1;fill-rule:nonzero;stroke:none;stroke-width:0.35277778"
       d="m 27.338165,133.16091 c 0.150283,0.006 0.221897,0.018 0.246944,0.036 0.0053,0.007 0.0053,0.0247 0.01235,0.0303 0,0.0356 0.02893,0.0356 0.04692,0.0356 0.06032,0 0.180269,-0.066 0.180269,-0.14464 0,-0.0949 -0.161219,-0.11289 -0.246591,-0.11994 -0.0056,0 -0.05927,0 -0.05927,-0.005 0,-0.007 0.05927,-0.0663 0.0896,-0.10196 0.360892,-0.36124 0.87242,-0.93838 0.87242,-0.97437 0,-0.0123 0,-0.0303 -0.03034,-0.0303 -0.02364,0 -0.127,0.0247 -0.234244,0.10901 -0.07161,0 -0.168275,0 -0.391584,-0.0427 -0.209197,-0.036 -0.348544,-0.0663 -0.498828,-0.0663 -0.246591,0 -0.474133,0.091 -0.679449,0.21096 -0.341489,0.2219 -0.371828,0.44486 -0.371828,0.44486 0,0.0113 0,0.0289 0.03563,0.0289 0.07161,0 0.300567,-0.10724 0.336198,-0.20919 0.04833,-0.15029 0.09666,-0.23425 0.361244,-0.23425 0.03034,0 0.137936,0 0.373239,0.0413 0.191558,0.0356 0.348897,0.066 0.48648,0.066 0.04163,0 0.08961,0 0.132292,-0.0123 -0.203906,0.23566 -0.378883,0.43427 -0.715081,0.77576 h -0.385938 c -0.19685,0 -0.234245,0.11465 -0.234245,0.127 0,0.0356 0.0374,0.0356 0.103364,0.0356 h 0.348544 c -0.02999,0.0303 -0.210608,0.21096 -0.709436,0.66146 -0.0071,0.006 -0.282575,0.25929 -0.602191,0.52246 -0.04692,0.0427 -0.119945,0.10866 -0.119945,0.139 0,0.006 0,0.0236 0.03034,0.0236 0.04833,0 0.126647,-0.036 0.180622,-0.0663 0.06597,-0.0413 0.132292,-0.0413 0.192617,-0.0413 0.17392,0 0.420511,0.0303 0.601133,0.0483 0.18027,0.0289 0.43815,0.0593 0.625475,0.0593 0.282575,0 0.509764,-0.15593 0.63112,-0.27023 0.234244,-0.2039 0.300566,-0.47554 0.300566,-0.49882 0,-0.0247 -0.0127,-0.0303 -0.03034,-0.0303 -0.07161,0 -0.30727,0.1143 -0.336198,0.22189 -0.02505,0.073 -0.06632,0.20532 -0.180622,0.33761 -0.121355,0 -0.252236,0 -0.607836,-0.0427 -0.192969,-0.0233 -0.475192,-0.0593 -0.67945,-0.0593 -0.02328,0 -0.1143,0 -0.185914,0.0109 z" />
    <path
       d="m 32.78717,139.3758 5.088819,0.0127"
       style="fill:none;stroke:#808080;stroke-width:0.15233015;stroke-linecap:butt;stroke-linejoin:miter;stroke-miterlimit:4;stroke-dasharray:none;stroke-opacity:1"
       id="path16913"
       inkscape:connector-curvature="0" />
    <path
       d="m 36.351926,139.38438 -0.610451,0.60769 2.134804,-0.6038 -2.132044,-0.61434 z"
       style="fill:#808080;fill-opacity:1;fill-rule:evenodd;stroke:#808080;stroke-width:0.16248573;stroke-linecap:butt;stroke-linejoin:miter;stroke-miterlimit:4;stroke-dasharray:none;stroke-opacity:1"
       id="path16917"
       inkscape:connector-curvature="0" />
    <path
       inkscape:connector-curvature="0"
       id="path16919"
       style="fill:#000000;fill-opacity:1;fill-rule:nonzero;stroke:none;stroke-width:0.35277778"
       d="m 47.311736,133.83225 c 0.0081,-0.10478 0.01235,-0.25789 0.01235,-0.33091 0,-0.2921 -0.01235,-1.29681 -0.595489,-1.29681 -0.191558,0 -0.360892,0.1711 -0.360892,0.21378 0,0.0219 0.02187,0.0219 0.03034,0.0219 0.01799,0 0.100542,-0.0137 0.16122,-0.0963 0.248002,0.006 0.404988,0.18309 0.48648,0.53587 0.05221,0.22189 0.07444,0.4646 0.07444,0.72072 0,0.16545 -0.0127,0.35701 -0.01658,0.39158 0,0.0219 0,0.0261 -0.0056,0.0303 -0.0081,0.005 -0.286455,0.23954 -0.421569,0.23954 -0.02222,0 -0.248003,0 -0.299156,-0.23001 -0.0053,-0.018 -0.0095,-0.0346 -0.02187,-0.0346 -0.03457,0 -0.08678,0.091 -0.08678,0.16016 0,0.11712 0.103364,0.3182 0.338666,0.3182 0.212373,0 0.669925,-0.40922 0.912284,-0.68756 0.552802,-0.63959 0.649111,-1.1176 0.649111,-1.26118 0,-0.23425 -0.156986,-0.32244 -0.261761,-0.32244 -0.08255,0 -0.103364,0.13935 -0.103364,0.1711 0,0.0385 0.0085,0.0427 0.05115,0.0469 0.16122,0.0176 0.205317,0.14851 0.205317,0.23001 0,0.0882 -0.13088,0.5789 -0.748242,1.17969 z" />
    <path
       d="m 41.694809,135.05321 h 10.587566 v 10.58615 H 41.694809 Z"
       style="fill:#fba9a7;fill-opacity:1;fill-rule:nonzero;stroke:#000000;stroke-width:0.02063104;stroke-linecap:butt;stroke-linejoin:miter;stroke-miterlimit:4;stroke-dasharray:none;stroke-opacity:1"
       id="path16923"
       inkscape:connector-curvature="0" />
    <path
       d="m 40.713381,135.99689 h 10.587567 v 10.58757 H 40.713381 Z"
       style="fill:#fba9a7;fill-opacity:1;fill-rule:nonzero;stroke:#000000;stroke-width:0.02063104;stroke-linecap:butt;stroke-linejoin:miter;stroke-miterlimit:4;stroke-dasharray:none;stroke-opacity:1"
       id="path16927"
       inkscape:connector-curvature="0" />
    <path
       d="M 39.842726,137.04993 H 50.428881 V 147.6375 H 39.842726 Z"
       style="fill:#fba9a7;fill-opacity:1;fill-rule:nonzero;stroke:#000000;stroke-width:0.02063104;stroke-linecap:butt;stroke-linejoin:miter;stroke-miterlimit:4;stroke-dasharray:none;stroke-opacity:1"
       id="path16931"
       inkscape:connector-curvature="0" />
    <path
       d="m 38.934323,138.03101 h 10.586155 v 10.58756 H 38.934323 Z"
       style="fill:#fba9a7;fill-opacity:1;fill-rule:nonzero;stroke:#000000;stroke-width:0.02063104;stroke-linecap:butt;stroke-linejoin:miter;stroke-miterlimit:4;stroke-dasharray:none;stroke-opacity:1"
       id="path16935"
       inkscape:connector-curvature="0" />
    <path
       d="m 32.796695,137.50043 6.136569,0.0123"
       style="fill:none;stroke:#808080;stroke-width:0.15072466;stroke-linecap:butt;stroke-linejoin:miter;stroke-miterlimit:4;stroke-dasharray:none;stroke-opacity:1"
       id="path16939"
       inkscape:connector-curvature="0" />
    <path
       d="m 37.427008,137.5087 -0.605167,0.60239 2.111173,-0.5983 -2.108399,-0.60749 z"
       style="fill:#808080;fill-opacity:1;fill-rule:evenodd;stroke:#808080;stroke-width:0.16077316;stroke-linecap:butt;stroke-linejoin:miter;stroke-miterlimit:4;stroke-dasharray:none;stroke-opacity:1"
       id="path16943"
       inkscape:connector-curvature="0" />
    <path
       d="m 32.855962,135.38235 7.959725,0.0109"
       style="fill:none;stroke:#808080;stroke-width:0.15374514;stroke-linecap:butt;stroke-linejoin:miter;stroke-miterlimit:4;stroke-dasharray:none;stroke-opacity:1"
       id="path16947"
       inkscape:connector-curvature="0" />
    <path
       d="m 39.277568,135.39079 -0.616075,0.61441 2.154185,-0.61163 -2.152524,-0.61886 z"
       style="fill:#808080;fill-opacity:1;fill-rule:evenodd;stroke:#808080;stroke-width:0.16399489;stroke-linecap:butt;stroke-linejoin:miter;stroke-miterlimit:4;stroke-dasharray:none;stroke-opacity:1"
       id="path16951"
       inkscape:connector-curvature="0" />
    <path
       inkscape:connector-curvature="0"
       id="path16953"
       style="fill:#000000;fill-opacity:1;fill-rule:nonzero;stroke:none;stroke-width:0.35277778"
       d="m 36.773559,131.94277 h 0.449439 c 0.3556,0 0.491772,-0.20814 0.491772,-0.24095 0,-0.0138 -0.0081,-0.018 -0.02611,-0.018 -0.02893,0 -0.09631,0.0261 -0.165452,0.073 -0.02046,0.0166 -0.02893,0.0166 -0.07973,0.0166 h -1.182511 c -0.334786,0 -0.706967,0.2921 -0.706967,0.51259 0,0.0166 0,0.0303 0.02081,0.0303 0.0635,0 0.232833,-0.0896 0.2413,-0.15311 0,-0.0469 0.0039,-0.0977 0.05927,-0.16545 0.03034,-0.0342 0.0508,-0.055 0.169333,-0.055 h 0.538692 c -0.04657,0.0289 -0.05927,0.0677 -0.06315,0.0981 l -0.310092,1.22343 c -0.02893,0.13229 -0.08819,0.30198 -0.165453,0.47978 -0.01658,0.0289 -0.01658,0.037 -0.01658,0.0427 0,0.0166 0.01235,0.0166 0.02505,0.0166 0.0508,0 0.187325,-0.072 0.224366,-0.127 0.01799,-0.0303 0.136525,-0.30586 0.195792,-0.53058 z" />
    <path
       d="m 17.346087,149.22906 h 34.988499 v 0.67946 H 17.346087 Z"
       style="fill:#ffffff;fill-opacity:1;fill-rule:nonzero;stroke:#000000;stroke-width:0.16032398;stroke-linecap:butt;stroke-linejoin:miter;stroke-miterlimit:4;stroke-dasharray:none;stroke-opacity:1"
       id="path16957"
       inkscape:connector-curvature="0" />
    <path
       d="m 17.137948,149.07051 h 35.484505 v 0.41339 H 17.137948 Z"
       style="fill:#ffffff;fill-opacity:1;fill-rule:nonzero;stroke:#ffffff;stroke-width:0.09750704;stroke-linecap:butt;stroke-linejoin:miter;stroke-miterlimit:4;stroke-dasharray:none;stroke-opacity:1"
       id="path16961"
       inkscape:connector-curvature="0" />
    <path
       d="M -3.9595599,149.2317 H 16.653204 v 0.6985 H -3.9595599 Z"
       style="fill:#ffffff;fill-opacity:1;fill-rule:nonzero;stroke:#000000;stroke-width:0.12484083;stroke-linecap:butt;stroke-linejoin:miter;stroke-miterlimit:4;stroke-dasharray:none;stroke-opacity:1"
       id="path16965"
       inkscape:connector-curvature="0" />
    <path
       d="M -4.0822985,149.06625 H 16.822552 v 0.4258 H -4.0822985 Z"
       style="fill:#ffffff;fill-opacity:1;fill-rule:nonzero;stroke:#ffffff;stroke-width:0.07592662;stroke-linecap:butt;stroke-linejoin:miter;stroke-miterlimit:4;stroke-dasharray:none;stroke-opacity:1"
       id="path16969"
       inkscape:connector-curvature="0" />
    <path
       d="m -65.392632,150.69396 h 18.788247 v 0.70133 h -18.788247 z"
       style="fill:#ffffff;fill-opacity:1;fill-rule:nonzero;stroke:#000000;stroke-width:0.11943553;stroke-linecap:butt;stroke-linejoin:miter;stroke-miterlimit:4;stroke-dasharray:none;stroke-opacity:1"
       id="path16973"
       inkscape:connector-curvature="0" />
    <path
       d="m -65.504238,150.52992 h 19.054167 v 0.42722 h -19.054167 z"
       style="fill:#ffffff;fill-opacity:1;fill-rule:nonzero;stroke:#ffffff;stroke-width:0.07263911;stroke-linecap:butt;stroke-linejoin:miter;stroke-miterlimit:4;stroke-dasharray:none;stroke-opacity:1"
       id="path16977"
       inkscape:connector-curvature="0" />
    <path
       d="m -22.359237,153.98044 h 17.1716461 v 0.70415 H -22.359237 Z"
       style="fill:#ffffff;fill-opacity:1;fill-rule:nonzero;stroke:#000000;stroke-width:0.11440454;stroke-linecap:butt;stroke-linejoin:miter;stroke-miterlimit:4;stroke-dasharray:none;stroke-opacity:1"
       id="path16981"
       inkscape:connector-curvature="0" />
    <path
       d="m -22.461215,153.81499 h 17.4143017 v 0.42862 H -22.461215 Z"
       style="fill:#ffffff;fill-opacity:1;fill-rule:nonzero;stroke:#ffffff;stroke-width:0.06957951;stroke-linecap:butt;stroke-linejoin:miter;stroke-miterlimit:4;stroke-dasharray:none;stroke-opacity:1"
       id="path16985"
       inkscape:connector-curvature="0" />
    <path
       d="m -85.148262,168.2115 h 18.786836 v 0.70132 h -18.786836 z"
       style="fill:#ffffff;fill-opacity:1;fill-rule:nonzero;stroke:#000000;stroke-width:0.11943553;stroke-linecap:butt;stroke-linejoin:miter;stroke-miterlimit:4;stroke-dasharray:none;stroke-opacity:1"
       id="path16989"
       inkscape:connector-curvature="0" />
    <path
       d="m -85.261278,168.04746 h 19.054166 v 0.42721 h -19.054166 z"
       style="fill:#ffffff;fill-opacity:1;fill-rule:nonzero;stroke:#ffffff;stroke-width:0.07263911;stroke-linecap:butt;stroke-linejoin:miter;stroke-miterlimit:4;stroke-dasharray:none;stroke-opacity:1"
       id="path16993"
       inkscape:connector-curvature="0" />
    <text
       id="text16999"
       style="font-variant:normal;font-weight:normal;font-size:1.85960567px;font-family:Verdana;-inkscape-font-specification:Verdana;writing-mode:lr-tb;fill:#000000;fill-opacity:1;fill-rule:nonzero;stroke:none;stroke-width:0.35277778"
       x="-84.461525"
       y="171.57301">
      <tspan
         id="tspan16995"
         sodipodi:role="line"
         y="171.57301"
         x="-84.461525 -83.211876 -82.105408 -81.138412 -80.01149 -78.83622 -77.869225 -77.136543 -76.344353 -75.169083 -74.196503 -73.463821 -72.811096 -72.158379 -71.648842 -71.139313 -70.401054 -69.294586 -68.502396"
         style="stroke-width:0.35277778">Reconstruct filters</tspan>
      <tspan
         id="tspan16997"
         y="154.11464"
         x="-64.054253"
         style="stroke-width:0.35277778">3</tspan>
    </text>
    <text
       id="text17003"
       style="font-variant:normal;font-size:1.85960567px;font-family:'MS Gothic';-inkscape-font-specification:MS-Gothic;writing-mode:lr-tb;fill:#000000;fill-opacity:1;fill-rule:nonzero;stroke:none;stroke-width:0.35277778"
       x="-62.873402"
       y="154.11464">
      <tspan
         id="tspan17001"
         y="154.11464"
         x="-62.873402"
         style="stroke-width:0.35277778"></tspan>
    </text>
    <text
       id="text17011"
       style="font-variant:normal;font-weight:normal;font-size:1.85960567px;font-family:Verdana;-inkscape-font-specification:Verdana;writing-mode:lr-tb;fill:#000000;fill-opacity:1;fill-rule:nonzero;stroke:none;stroke-width:0.35277778"
       x="-61.013798"
       y="154.11464">
      <tspan
         id="tspan17005"
         sodipodi:role="line"
         y="154.11464"
         x="-61.013798 -59.832947 -59.180225 -57.876644 -56.749722 -55.591187 -54.507038 -53.380116 -52.870583 -51.695312 -50.962627 -50.447517 -49.320599"
         style="stroke-width:0.35277778">3 Convolution</tspan>
      <tspan
         id="tspan17007"
         sodipodi:role="line"
         y="157.14651"
         x="-17.450598 -16.200941 -15.094476 -14.127481 -12.952208 -11.836444 -10.677912"
         style="stroke-width:0.35277778">Reshape</tspan>
      <tspan
         id="tspan17009"
         y="152.41727"
         x="-1.5736872"
         style="stroke-width:0.35277778">1</tspan>
    </text>
    <text
       id="text17015"
       style="font-variant:normal;font-size:1.85960567px;font-family:'MS Gothic';-inkscape-font-specification:MS-Gothic;writing-mode:lr-tb;fill:#000000;fill-opacity:1;fill-rule:nonzero;stroke:none;stroke-width:0.35277778"
       x="-0.39284208"
       y="152.41727">
      <tspan
         id="tspan17013"
         y="152.41727"
         x="-0.39284208"
         style="stroke-width:0.35277778"></tspan>
    </text>
    <text
       id="text17023"
       style="font-variant:normal;font-weight:normal;font-size:1.85960567px;font-family:Verdana;-inkscape-font-specification:Verdana;writing-mode:lr-tb;fill:#000000;fill-opacity:1;fill-rule:nonzero;stroke:none;stroke-width:0.35277778"
       x="1.466766"
       y="152.41727">
      <tspan
         id="tspan17017"
         sodipodi:role="line"
         y="152.41727"
         x="1.466766 2.6476154 3.3003371 4.6039205 5.7308416 6.8893757 7.973526 9.1004467 9.6099787 10.78525 11.517934 12.033045 13.159966"
         style="stroke-width:0.35277778">1 Convolution</tspan>
      <tspan
         id="tspan17019"
         sodipodi:role="line"
         y="152.32278"
         x="31.732298 33.173492 34.289257 35.021942 36.197212 37.30368"
         style="stroke-width:0.35277778">Gather</tspan>
      <tspan
         id="tspan17021"
         sodipodi:role="line"
         y="160.10381"
         x="-57.185978 -55.794994 -54.67923 -54.169693 -53.654587 -52.570438 -51.46397 -50.811249 -50.030212 -48.222679 -47.064144 -46.554611 -45.448147 -43.64061 -42.534142 -41.358875 -40.620609 -39.504848 -38.77216 -38.26263 -37.135708"
         style="stroke-width:0.35277778">Naiive Implementation</tspan>
    </text>
    <text
       id="text17027"
       style="font-variant:normal;font-weight:normal;font-size:1.85960567px;font-family:Verdana;-inkscape-font-specification:Verdana;writing-mode:lr-tb;fill:#ff2a2a;fill-opacity:1;fill-rule:nonzero;stroke:none;stroke-width:0.35277778"
       x="-62.603573"
       y="163.3326">
      <tspan
         id="tspan17025"
         sodipodi:role="line"
         y="163.3326"
         x="-62.603573 -61.822536 -60.647266 -59.680271 -58.888081 -57.781612 -56.660271 -55.693275 -54.586811 -53.428276 -52.775555 -51.808559 -50.681641 -48.874104 -47.715569 -46.540298 -45.807613 -44.686272 -43.953587 -43.444054 -42.317135 -41.141865 -40.020519 -39.51099 -38.858269 -37.891273 -36.764351 -34.956814 -33.798279 -33.283169 -32.176704 -31.077679 -30.568146 -29.835461"
         style="stroke-width:0.35277778">Increased computational complexity</tspan>
    </text>
    <text
       id="text17031"
       style="font-variant:normal;font-weight:normal;font-size:1.85960567px;font-family:Verdana;-inkscape-font-specification:Verdana;writing-mode:lr-tb;fill:#497929;fill-opacity:1;fill-rule:nonzero;stroke:none;stroke-width:0.35277778"
       x="-62.621731"
       y="165.78944">
      <tspan
         id="tspan17029"
         sodipodi:role="line"
         y="165.78944"
         x="-62.621731 -61.598946 -60.492481 -58.971325 -57.864857 -57.072666 -56.419945 -55.26141 -54.145645 -53.381348 -52.265587 -50.45805 -49.351585 -48.6189 -47.512436 -46.714664"
         style="stroke-width:0.35277778">Fewer parameters</tspan>
    </text>
    <text
       id="text17035"
       style="font-variant:normal;font-weight:normal;font-size:1.85960567px;font-family:Verdana;-inkscape-font-specification:Verdana;writing-mode:lr-tb;fill:#000000;fill-opacity:1;fill-rule:nonzero;stroke:none;stroke-width:0.35277778"
       x="11.340554"
       y="159.55284">
      <tspan
         id="tspan17033"
         sodipodi:role="line"
         y="159.55284"
         x="11.340554 12.515824 13.168547 13.821268 14.3308 15.297794 15.812905 16.919371 18.094641 18.827326 19.480047 20.261082 22.068619 23.227154 23.736685 24.843151 26.650686 27.757153 28.932423 29.670687 30.786449 31.519135 32.028664 33.161167"
         style="stroke-width:0.35277778">Efficient Implementation</tspan>
    </text>
    <text
       id="text17041"
       style="font-variant:normal;font-weight:normal;font-size:1.85960567px;font-family:Verdana;-inkscape-font-specification:Verdana;writing-mode:lr-tb;fill:#497929;fill-opacity:1;fill-rule:nonzero;stroke:none;stroke-width:0.35277778"
       x="5.0680485"
       y="165.66454">
      <tspan
         id="tspan17037"
         sodipodi:role="line"
         y="165.66454"
         x="5.0680485 6.0908313 7.1972966 8.7184544 9.8249197 10.617111 11.269834 12.428368 13.54413 14.308429 15.424191 17.23173 18.338194 19.070879 20.177343 20.975115"
         style="stroke-width:0.35277778">Fewer parameters</tspan>
      <tspan
         id="tspan17039"
         sodipodi:role="line"
         y="162.67114"
         x="5.0857944 6.3354492 7.4419146 8.6004486 9.7757196 10.742715 11.84918 13.007714 13.660436 14.627431 15.754352 17.56189 18.720423 19.895693 20.628378 21.744143 22.482405 22.991936 24.118856 25.294128 26.409891 26.925003 27.577723 28.544718 29.671638 31.479176 32.637711 33.147243 34.253708 35.352737 35.867844 36.594952"
         style="stroke-width:0.35277778">Reduced computational complexity</tspan>
    </text>
    <path
       d="M -25.341434,168.08309 V 127.98636"
       style="fill:none;stroke:#000000;stroke-width:0.19999994;stroke-linecap:butt;stroke-linejoin:miter;stroke-miterlimit:4;stroke-dasharray:none;stroke-opacity:1"
       id="path17045"
       inkscape:connector-curvature="0" />
  </g>
</svg>
